<svg width="138" height="65" viewBox="0 0 138 65" fill="none" xmlns="http://www.w3.org/2000/svg">
<path d="M0.605396 14.5403V0H137.257V14.7063H0.605396V14.5403ZM0.605396 64.834V50.3933H137.257V65H0.605396V64.834ZM137.021 29.1139C136.248 28.0848 135.07 27.5536 133.725 27.5536C131.203 27.5536 129.05 28.9811 126.629 32.3672C124.543 35.2222 121.954 38.8075 120.07 38.8075C119.633 38.8075 119.263 38.6747 119.028 38.3427C118.456 37.6124 118.456 35.9857 119.028 33.6287C119.7 30.9729 120.978 29.1139 122.155 29.1139C122.996 29.1139 123.333 29.5787 123.433 29.8774C123.097 29.8442 122.694 29.9438 122.391 30.1762C121.987 30.475 121.752 30.9397 121.752 31.4709C121.752 31.9356 121.92 32.4004 122.223 32.6992C122.525 32.998 122.929 33.1639 123.4 33.1639C124.577 33.1639 125.418 32.2012 125.418 30.8069C125.418 29.9106 125.081 29.0807 124.51 28.5163C123.871 27.8856 122.963 27.5536 121.819 27.5536C118.994 27.5536 116.505 29.9438 115.294 31.3381C113.915 32.9316 112.335 34.525 111.561 35.2886C112.301 32.832 112.133 30.5082 111.09 29.0143C110.417 28.0516 109.408 27.5536 108.265 27.5536C106.516 27.5536 105.372 28.3172 104.767 28.8483L105.07 27.786H99.1167L98.7468 29.2135H100.395C99.6212 31.7033 97.5023 33.9939 96.527 34.9898C96.6615 34.5914 96.796 34.0271 96.8297 33.2967C96.9978 31.4377 96.4933 29.7778 95.4843 28.7155C94.7781 27.952 93.8363 27.5536 92.7937 27.5536C89.834 27.5536 87.2442 29.3463 85.1254 32.832L84.4863 33.9275C83.1074 36.2845 81.6948 38.7411 79.4077 38.7411C78.7687 38.7411 78.2642 38.5087 77.8942 38.0107C76.9525 36.7824 76.8852 33.9939 77.7597 30.9397C78.8696 27.0889 81.2239 23.1716 83.5782 23.1716C83.9818 23.1716 84.3182 23.3376 84.5872 23.6364C85.4953 24.6655 85.5626 27.0889 85.4281 28.0516L85.3944 28.2508H87.1433L88.9595 21.7441H87.3115L87.2779 21.8105L86.6052 22.74C86.2352 22.2753 85.0245 21.1798 82.4347 21.1798C79.475 21.1798 74.2955 24.3003 72.5466 31.0061C71.7057 34.2594 72.0757 37.1144 73.5892 39.0398C74.6655 40.4341 76.2799 41.1977 77.9615 41.1977C80.854 41.1977 83.4101 39.0398 84.52 37.3136C84.6881 38.4755 85.4617 41.1977 88.825 41.1977C91.852 41.1977 95.3835 38.9402 99.0831 34.6578L96.2243 45.7125H100.496L101.908 40.0026C102.245 40.4673 103.085 41.1977 104.7 41.1977C106.987 41.1977 110.787 38.6083 114.083 34.857C113.613 36.7492 113.882 38.4423 114.823 39.6374C115.563 40.6333 116.707 41.1977 117.884 41.1977C121.853 41.1977 124.644 37.9111 125.586 36.6164C125.552 37.8115 125.956 38.9402 126.696 39.7702C127.503 40.6665 128.68 41.1645 129.992 41.1645C133.49 41.1645 136.517 38.7743 137.559 35.2222C138.299 32.666 138.097 30.5414 137.021 29.1139ZM93.4327 34.6246C92.861 36.8488 91.5493 39.4382 89.7667 39.4382C89.3631 39.4382 89.0604 39.3054 88.8586 39.0398C88.2869 38.3095 88.4214 36.5501 89.195 33.7947C90.1367 30.7074 91.1793 29.2135 92.491 29.2135C92.8273 29.2135 93.0964 29.3463 93.2982 29.6118C93.9372 30.4418 94.0045 32.5 93.4327 34.6246ZM107.323 34.7242C106.651 37.6124 105.473 39.239 104.128 39.239C103.085 39.239 102.581 38.2763 102.514 38.0439C102.615 37.6456 103.287 34.691 103.657 33.3631C104.195 31.2385 105.44 29.6782 106.516 29.6782C106.852 29.6782 107.121 29.811 107.323 30.0434C107.693 30.5414 108.029 31.7365 107.323 34.7242ZM134.633 34.6246C134.062 36.8488 132.75 39.4382 130.967 39.4382C130.564 39.4382 130.261 39.3054 130.059 39.0398C129.487 38.3095 129.622 36.5501 130.396 33.7947C131.304 30.7074 132.346 29.2135 133.658 29.2135C133.994 29.2135 134.263 29.3463 134.465 29.6118C135.138 30.4418 135.205 32.5 134.633 34.6246ZM65.9545 31.9688C66.2572 32.2676 66.6272 32.4004 67.098 32.4004C67.9052 32.4004 68.7797 31.9025 68.7797 30.475C68.7797 29.7778 68.5106 29.1471 68.0061 28.6491C67.2662 27.9188 66.089 27.5204 64.6428 27.5204C61.784 27.5204 59.7996 28.6823 59.0597 30.7737C58.5216 32.334 59.3624 33.9939 61.414 35.4545L61.6831 35.6537C62.8939 36.4837 63.6002 37.0148 63.432 38.0771C63.2975 38.9402 62.3558 39.5378 61.2122 39.5378C59.4633 39.5046 59.1606 38.6083 59.127 38.3095C59.4297 38.1767 60.2369 37.712 60.2369 36.7492C60.2369 36.2845 60.1023 35.9193 59.7996 35.6205C59.3624 35.189 58.757 35.1558 58.5216 35.1558C57.9498 35.1558 56.9745 35.355 56.8399 36.6828C56.8063 36.882 56.8399 37.0812 56.8399 37.1808C56.7054 37.38 56.1673 38.0771 55.2592 38.3759C55.0574 38.4423 54.7547 38.4091 54.5529 38.2099C54.2502 37.9443 54.2165 37.4132 54.4183 36.7492C54.6201 36.0521 56.7054 27.7528 56.7054 27.7528H52.4676L52.1313 28.8815C51.795 28.3504 50.9878 27.5536 49.138 27.5536C46.2791 27.5536 43.8912 30.309 42.714 32.666C41.705 34.6246 39.8552 38.3095 38.409 38.3095C38.2408 38.3095 38.1399 38.2431 38.039 38.1435C37.8709 37.9443 37.7027 37.3468 38.1736 35.6537C38.5435 34.2594 41.5705 22.0097 41.5705 22.0097H34.3394L33.9358 23.7028H36.6601L34.7766 31.1057C33.3977 36.4505 30.9761 38.3427 29.3617 38.3427C29.0254 38.3427 28.7563 38.2431 28.6218 38.0439C28.1845 37.5128 28.4872 36.2181 28.689 35.2554C28.9917 33.9275 29.9335 30.143 30.1016 29.4459H33.095L33.5322 27.7528H30.5725L31.5815 23.57H29.9671L29.9335 23.6364C27.7809 26.7901 26.8392 27.8192 23.6441 27.8192H23.5095L23.1059 29.4127H25.6621C25.5612 29.9438 25.2585 31.3381 25.2585 31.3381C23.8459 36.5832 21.1552 38.7743 20.0117 38.7743C19.4736 38.7743 19.1372 38.6747 18.9691 38.4755C18.7 38.1103 18.7336 37.3468 19.07 35.9857C19.709 33.5955 22.4669 23.9351 22.7696 22.7732H25.4939L25.9984 21.1466H20.1799C18.0946 21.1466 15.6394 21.3126 13.2178 22.6073C10.2581 24.2339 8.07194 27.2549 6.79388 31.6037C6.79388 31.6369 5.98669 34.7242 5.2804 37.0148C4.54047 39.4382 2.55611 39.7038 1.74892 39.7038C1.24442 39.7038 0.706295 39.4714 0.269065 39.0398L0 38.7743V40.9653L0.134532 40.9985C0.87446 41.1645 1.78255 41.264 2.79155 41.264C5.58309 41.264 8.07194 39.2722 9.35 37.5792C10.3926 36.1849 10.729 34.9566 11.2671 33.0644L11.368 32.666H15.5721C15.404 33.2635 14.8658 35.023 14.395 36.716C13.9914 38.1435 14.0923 39.2722 14.6977 40.0358C15.2694 40.7993 16.3457 41.1645 17.8255 41.1645C19.339 41.1645 22.0633 40.7993 23.9131 38.4755C23.9468 39.0398 24.1486 39.8034 24.6867 40.3677C25.2248 40.8989 25.9984 41.1645 26.9737 41.1645C29.2608 41.1645 31.8505 39.6706 33.1286 38.1767C33.1622 38.7411 33.2968 39.7038 33.9358 40.3677C34.4067 40.8989 35.1129 41.1645 35.9538 41.1645C38.5099 41.1645 40.8642 39.1394 41.9405 37.5128C42.1423 38.6083 42.8822 41.1645 45.9764 41.1645C47.9608 41.1645 49.407 39.9362 50.2142 39.0398C50.3824 39.7038 50.9541 41.1645 52.7367 41.1645C54.6201 41.1645 56.5036 39.903 57.3781 38.9402C58.1853 40.4673 59.0933 41.1645 62.154 41.1645C65.08 41.1645 67.5016 39.2058 67.9052 37.38C68.3761 35.3882 67.2662 34.5914 65.4164 33.2635L65.1809 33.0975L64.811 32.832C63.9029 32.2012 63.1293 31.6369 63.1293 30.6742C63.1293 29.645 63.9701 29.1803 64.811 29.1803C65.5173 29.1803 65.8872 29.4459 66.0554 29.6118C65.8536 29.811 65.4836 30.2426 65.4836 30.8733C65.4836 31.2385 65.6518 31.6701 65.9545 31.9688ZM16.043 30.8733H11.8052C13.4532 25.3626 15.404 22.906 18.2964 22.8064L16.043 30.8733ZM50.7523 33.8943C49.9115 37.048 48.9361 38.4755 47.5236 38.4755C47.2209 38.4755 46.9854 38.3427 46.7836 38.1103C46.1782 37.3136 46.2119 35.3881 46.8509 33.0975C47.759 29.8442 48.9025 29.4127 49.9115 29.4127C50.2142 29.4127 50.4833 29.5455 50.6851 29.811C51.2232 30.5082 51.2568 32.002 50.7523 33.8943Z" fill="#656565"/>
</svg>
