<svg width="194" height="52" viewBox="0 0 194 52" fill="none" xmlns="http://www.w3.org/2000/svg">
<path d="M75.0486 27.9507H73.0747V20.2012C75.3798 20.2012 77.4641 20.0914 77.4641 22.9338C77.4641 25.2226 77.5701 27.9507 75.0486 27.9507ZM64.7331 49.3454H77.3537C86.3533 49.3454 86.3533 40.8314 86.3533 37.9935C86.3533 37.5542 86.3533 32.0979 81.7431 30.6789C85.8013 28.3857 85.4746 23.584 85.4746 21.2907C85.4746 21.0711 85.4746 13.9761 77.4686 13.9761H64.7375V49.3454H64.7331ZM73.0747 43.0148V33.9562C76.369 34.0616 77.7909 33.9562 77.7909 38.2131C77.7909 43.1247 76.6958 43.0148 73.0747 43.0148ZM97.5432 25.987C99.0799 25.987 99.0799 27.9507 99.0799 28.6097V41.7057C99.0799 42.4701 99.0799 44.3284 97.5432 44.3284C95.8961 44.3284 95.8961 42.4701 95.8961 41.8199V28.4955C95.8961 27.9507 95.8961 25.987 97.5432 25.987ZM97.6536 49.9999C106.98 49.9999 106.98 42.5799 106.98 41.8155V30.1341C106.98 27.2962 106.98 20.6362 97.6536 20.6362C88.1064 20.6362 88.1064 27.2962 88.1064 28.9304V41.8155C88.1064 43.1247 88.1064 49.9999 97.6536 49.9999ZM173.475 21.4006H175.011V15.505H182.805V21.4006H184.89V27.0765H182.805V41.1609C182.805 43.9989 183.247 43.7836 185 43.9989V49.4596C184.121 49.8945 182.037 49.8945 180.937 49.8945C178.853 49.8945 175.011 49.3454 175.011 44.1087V27.0765H173.475V21.4006ZM119.38 26.747C120.585 26.747 120.585 28.2758 120.585 29.0402V41.7013C120.585 43.4454 120.144 44.1043 119.38 44.1043C118.391 44.1043 117.512 43.0105 117.512 40.3921V30.1341C117.512 28.9304 117.953 26.747 119.38 26.747ZM109.612 49.3454H117.291V46.7271C117.819 47.7189 118.609 48.5481 119.577 49.125C120.544 49.7019 121.652 50.0045 122.78 49.9999C128.485 49.9999 128.596 44.324 128.596 40.9413V27.9507C128.596 26.4219 128.596 20.6362 122.89 20.6362C120.148 20.6362 118.28 22.9294 117.406 24.3484V13.9761H109.612V49.3454ZM149.995 31.8782H142.316V28.2758C142.316 28.2758 142.316 26.0924 140.669 26.0924C139.132 26.0924 139.132 28.166 139.132 29.8047V40.9369C139.132 42.7952 139.132 44.6491 140.669 44.6491C142.316 44.6491 142.316 43.0105 142.316 40.9369V37.2291H149.995C149.885 43.2345 150.764 49.9999 140.669 49.9999C131.232 49.9999 131.122 42.7952 131.122 39.8474V30.3538C131.122 27.6257 131.122 20.6405 140.669 20.6405C149.333 20.6362 149.995 25.3324 149.995 31.8782ZM160.196 39.083C160.196 36.8996 161.949 36.245 163.49 35.1511V40.067C163.49 42.5799 163.274 43.5596 161.627 43.5596C160.858 43.5596 160.2 43.1203 160.2 42.1406V39.083H160.196ZM163.49 49.3454H171.174V28.6053C171.174 23.0348 166.453 20.9656 161.847 20.9656C157.131 20.9656 152.411 23.0392 152.411 28.6053V30.5691H160.2V28.1704C160.2 27.0765 160.532 26.0968 161.847 26.0968C163.163 26.0968 163.495 27.0809 163.495 28.1704C163.495 33.3016 152.415 32.4274 152.415 39.7419V43.9989C152.415 47.6013 154.499 49.6749 157.9 49.6749C160.969 49.6749 162.399 48.0362 163.384 46.0725H163.495V49.3454H163.49ZM2.29678 0.00153512C4.16029 3.60392 5.14945 5.89714 9.20766 8.30019C13.3807 10.7032 13.9282 10.3738 14.3698 10.4836C14.8114 10.7032 15.0278 11.248 15.0278 11.5775C16.017 11.5775 19.4172 11.0283 21.0599 11.1382C22.707 11.248 26.4385 11.7971 29.0748 12.667C30.9383 13.2117 33.2434 14.086 33.5746 14.1958C34.0117 14.3056 34.6741 14.5253 35.1113 14.086C35.5529 13.5412 35.0009 13.3216 37.4164 12.3419C39.8275 11.3578 42.243 10.1585 43.0113 9.8334C45.465 8.56412 47.7201 6.94663 49.7058 5.03169C50.037 4.7022 50.1474 4.59237 50.2578 4.7022C50.4786 4.92186 50.3682 5.13713 50.2578 5.25135C49.3445 7.5384 48.2809 9.76321 47.0739 11.9114C46.5264 12.7856 43.4529 16.1683 43.0157 16.4934C42.5697 16.9239 40.9226 18.3429 40.9226 18.3429C40.9226 18.3429 39.4963 19.5466 40.8122 20.4165C42.1281 21.4006 41.5806 22.3802 40.5958 23.1446C39.6067 23.7992 37.0808 25.4423 34.8861 25.2226C32.6914 25.0029 33.3493 25.2226 32.0334 24.568C31.5918 24.3484 30.9339 24.3484 31.265 24.7833C31.4858 25.1128 31.3754 25.3324 31.3754 25.3324C30.9339 26.8612 30.9339 29.1545 31.1546 29.9145C31.3273 30.6696 31.665 31.3775 32.1438 31.988C32.2542 32.2077 32.5854 32.3175 31.923 32.3175C31.3754 32.3175 31.265 32.2077 30.8279 31.8782C30.2803 31.7728 28.6332 31.5531 27.9752 32.0979C27.3172 32.6426 27.7588 32.4274 26.3281 32.7568C25.8909 32.9765 25.6701 33.3016 26.3281 34.066C26.986 34.8304 27.5336 35.2653 27.7544 35.485C27.9708 35.5904 28.9599 35.8101 27.644 36.5745C26.4385 37.3389 25.0121 38.323 21.9431 38.1033C18.8652 37.888 17.5493 36.245 16.8957 35.0457C16.3437 33.9562 16.5645 33.407 14.3698 33.407C12.1751 33.407 8.44371 34.1714 7.23817 34.2813C5.14945 34.6064 5.59104 34.9402 4.05431 33.7365C1.97001 31.988 0.764466 30.7887 0.543671 30.5691C0.322876 30.3494 -0.335092 30.1297 0.212479 28.9304C0.654069 27.8409 1.52842 25.763 3.61713 23.1446C5.81183 20.5263 6.24901 19.9816 7.01737 19.4324C8.6645 18.1233 7.89613 18.0134 9.65366 19.4324C11.08 20.5263 12.5063 21.6158 13.4955 22.1606C14.4846 22.5999 14.701 22.7097 15.359 24.2341C16.017 25.8772 16.6749 27.0765 16.8957 27.5158C17.1121 27.9507 18.6488 29.2599 19.9648 29.3697C22.0491 29.3697 23.8066 29.4796 25.1181 27.9507C25.6701 26.5318 25.9969 25.4423 26.7652 24.6778C27.092 24.3484 27.2024 24.0233 26.7652 24.0233C26.3237 24.0233 23.5814 23.9178 22.707 23.6982C21.8283 23.4741 14.9174 21.2907 13.9282 20.8558C13.0539 20.4165 8.7749 18.8877 6.5802 16.0541C4.3855 13.1063 4.1647 12.2321 3.06515 8.30019C2.29678 5.24695 2.29678 -0.1039 2.29678 0.00153512Z" fill="#656565"/>
<path d="M42.2166 23.7883C42.1057 24.5677 42.2166 30.6906 43.5384 32.3613C43.9819 32.6972 44.1993 33.1406 43.7602 33.1406C43.4275 33.2526 40.8948 33.1406 40.5621 33.1406C40.3403 33.1406 39.9012 33.0287 39.9012 33.808C40.0121 34.8068 39.7903 36.7015 38.1358 37.3689C36.7031 37.9288 35.1595 38.5917 32.2985 37.033C31.8816 36.6761 31.4762 36.3056 31.0832 35.9221C30.9723 35.8102 30.9723 35.6982 31.0832 35.4742C31.3049 35.2548 32.9594 33.4721 33.2877 32.8047C33.6159 32.0253 33.505 32.0253 33.2877 31.5819C33.3941 31.8059 32.0767 29.9112 33.2877 30.0232C34.1659 30.1352 36.0422 30.6906 37.4749 30.0232C38.9076 29.4678 40.3403 28.8004 40.8948 25.571C41.0056 24.3482 41.0056 24.0123 41.5557 23.5688C41.8839 23.1209 42.2166 22.4535 42.2166 23.7883Z" fill="#656565"/>
<path d="M44.5654 34.995C46.1019 35.7634 48.5171 37.1896 49.0646 38.5055C49.2854 38.8367 49.3958 39.605 48.7335 38.7219C47.9652 37.9536 46.5391 36.2005 42.8081 35.5426C41.819 35.4322 40.5077 35.5426 40.6136 34.6638C40.724 34.2223 40.6136 33.7851 42.1502 34.1163C43.4704 34.5579 44.5654 34.995 44.5654 34.995ZM43.36 36.8629C45.1129 37.7372 46.3227 39.0575 46.5435 39.3843C46.7642 39.711 46.9806 39.9318 46.7642 40.0422C46.4331 40.2586 46.3227 40.1482 45.996 39.8214C45.6692 39.4902 43.8015 37.9536 40.6225 37.1852C40.0661 36.9733 39.7394 36.7525 40.2869 36.3153C40.8344 35.8782 40.8344 35.9841 41.3863 36.2049C41.9338 36.3153 43.2496 36.8629 43.36 36.8629ZM41.9338 39.2739C43.0288 40.1526 44.2342 41.4685 44.5654 41.7997C44.7817 42.1264 44.7817 42.1264 44.3446 42.0204C43.9075 42.0204 43.2452 41.1417 42.6977 40.815C42.0398 40.4838 39.8454 39.0575 39.2979 38.9471C38.7504 38.7263 38.5296 38.6203 38.9711 38.1788C39.2979 37.7372 39.2979 37.852 39.629 37.958C40.0661 38.1788 41.9338 39.2739 41.9338 39.2739ZM32.9353 38.6203C33.2665 38.8411 33.814 38.9471 33.3769 39.9362C33.0935 40.9514 32.4739 41.8404 31.6195 42.4576C31.178 42.674 29.8666 43.5571 31.0676 42.0204C31.5092 40.9209 31.8359 40.3734 31.8359 38.9471C31.8359 38.3995 31.7255 38.1788 32.4938 38.2892C32.719 38.3996 32.9353 38.6203 32.9353 38.6203ZM23.4997 44.4314C24.0472 45.6369 24.9259 46.7365 26.1313 46.7365C26.7875 46.7442 27.4365 46.5995 28.0272 46.3136C28.618 46.0278 29.1343 45.6087 29.5355 45.0894C29.5355 45.9681 29.3147 46.4053 29.0984 46.7365C28.988 47.0632 28.6568 47.5048 28.988 48.1627C29.4295 48.8207 29.2088 49.6994 28.988 50.1366C28.882 50.6885 28.4405 52 26.3564 52C24.2724 52 21.5304 52 20.431 51.5584C19.6627 51.2317 19.3316 51.4525 19.442 49.8054C19.442 48.3791 19.6628 47.5048 19.7731 46.8424C19.8791 46.2949 20.0999 46.0741 20.9785 46.0741H22.0735C22.4047 45.9681 22.5151 45.8533 22.5151 45.4161C22.5151 44.979 22.6255 44.2107 22.8418 43.6587C23.173 43.2215 23.2833 43.3319 23.2833 43.6587C23.3893 43.8839 23.4997 44.4314 23.4997 44.4314ZM26.352 38.9471C26.1313 39.9362 25.5837 41.9101 24.8155 42.8992C24.5991 41.7997 24.268 40.4838 24.268 40.0466C24.268 39.605 23.8309 39.3887 25.4734 38.7263C26.7936 38.1788 26.352 38.9471 26.352 38.9471ZM9.23808 43.7779C10.0064 42.6784 14.3952 39.1679 14.9427 38.9471C14.9427 38.9471 15.6006 38.5099 16.2585 38.2892C17.5743 37.958 17.5743 38.7263 17.1372 39.2739C15.6006 39.8258 13.2958 41.3581 11.6533 42.568C10.4479 43.4467 8.58019 45.3102 8.03269 46.0785C7.70595 46.1889 7.15845 46.0785 7.59557 45.531C8.24904 44.7626 9.23808 43.8839 9.23808 43.7779ZM4.51806 41.5789C8.02827 38.6159 10.7746 37.7372 13.4062 36.9689C14.722 36.6421 15.9274 36.4213 16.2585 37.0837C16.3689 37.5208 16.2585 37.7372 15.8214 37.852C13.9537 37.852 10.7746 38.6203 7.59115 40.4838C6.37454 41.2073 5.2353 42.0536 4.19132 43.0096C3.86459 43.3363 2.87554 43.0096 3.64382 42.4576C4.41209 41.7997 4.51806 41.5789 4.51806 41.5789ZM3.7542 37.5208C6.03051 36.3271 8.47054 35.476 10.9954 34.995C10.9954 34.995 13.8477 34.4475 15.1635 34.7742C16.1525 36.0945 15.4946 35.9797 14.7264 35.9797C12.0948 35.9797 9.34846 36.5317 6.93768 37.2956C4.41209 38.0728 1.55977 39.605 0.570726 40.0466C0.239574 40.1526 -0.0915785 40.1526 0.0232209 39.7154C0.12919 39.3887 0.791494 39.0619 1.01226 38.9471L3.7542 37.5208ZM190.815 49.2622C190.454 49.2658 190.096 49.1973 189.762 49.0607C189.428 48.9242 189.124 48.7223 188.869 48.467C188.613 48.2116 188.412 47.9079 188.275 47.5736C188.138 47.2393 188.07 46.8812 188.073 46.5201C188.073 44.873 189.279 43.6675 190.815 43.6675C192.352 43.6675 193.562 44.873 193.562 46.5201C193.564 46.8812 193.495 47.2392 193.357 47.5733C193.22 47.9073 193.018 48.2107 192.762 48.4659C192.507 48.7211 192.203 48.9229 191.869 49.0596C191.535 49.1963 191.177 49.2652 190.815 49.2622ZM190.815 49.6994C191.66 49.6994 192.469 49.364 193.066 48.7669C193.663 48.1698 193.999 47.36 193.999 46.5157C194.01 46.0893 193.936 45.665 193.782 45.2675C193.627 44.87 193.395 44.5074 193.098 44.2007C192.802 43.894 192.447 43.6495 192.055 43.4813C191.663 43.3132 191.242 43.2249 190.815 43.2215C189.943 43.225 189.108 43.5733 188.492 44.1905C187.875 44.8076 187.528 45.6435 187.526 46.5157C187.526 48.2731 189.058 49.6994 190.815 49.6994ZM191.367 46.6261C192.021 46.6261 192.462 46.2993 192.462 45.6369C192.462 45.0894 192.136 44.6478 191.147 44.6478H189.61V48.2687H190.047V46.6216H190.815L191.915 48.2687H192.462L191.367 46.6261ZM190.047 46.2993V44.9834H191.036C191.588 44.9834 192.025 45.0894 192.025 45.6369C192.025 46.4053 191.257 46.2949 190.709 46.2949H190.047V46.2993Z" fill="#656565"/>
</svg>
