<svg width="163" height="50" viewBox="0 0 163 50" fill="none" xmlns="http://www.w3.org/2000/svg">
<path fill-rule="evenodd" clip-rule="evenodd" d="M44.2724 12.2238C44.6876 8.7419 43.5667 7.82958 40.4527 7.82958C35.9682 7.82958 33.6242 11.1655 32.6529 15.8582C31.6848 20.5509 32.3808 23.8857 36.8631 23.8857C40.3601 23.8857 42.4179 22.8572 43.2828 19.2197H55.0625C54.4591 21.7627 53.6835 24.2257 51.1202 26.3381C47.4123 29.3873 41.7413 30.7153 35.852 30.7153C22.0962 30.7153 18.7799 24.8897 20.6473 15.8582C22.0295 9.17142 26.6452 1 41.9952 1C48.8731 1 53.3845 2.32904 55.2949 4.67697C56.6556 6.35772 56.8707 8.07791 56.0521 12.2238H44.2724ZM72.0496 1.74285H86.4519L94.5991 29.9746H81.4489L80.4044 25.2808H67.4963L64.3983 29.9746H52.2292L72.0496 1.74285ZM80.4604 19.1046L78.2402 9.25028L71.757 19.1056H80.4604V19.1046ZM107.821 21.3353C107.533 22.4661 107.605 23.6001 108.172 24.3429C108.779 25.0847 109.724 25.4759 111.243 25.4759C113.636 25.4759 116.342 24.8897 116.811 22.6217C116.916 22.1144 116.815 21.6838 116.584 21.3331C115.396 19.533 102.562 18.2061 99.5666 14.8809C98.3586 13.5497 98.3145 11.5556 98.6447 9.95264C99.9226 3.77532 106.007 1 116.988 1C128.653 1 131.499 4.32314 130.449 9.71497H119.126C119.373 8.58523 119.081 7.6079 118.365 7.02278C117.688 6.4366 116.588 6.24156 115.147 6.24156C112.713 6.24156 111.228 7.17945 110.93 8.62573C110.842 9.05524 110.877 9.60306 111.157 9.91533C112.579 11.6739 125.011 12.9273 127.964 16.2888C128.826 17.2661 129.611 18.7923 129.047 21.5282C127.889 27.1193 122.359 30.7164 109.859 30.7164C94.9648 30.7164 96.3643 26.4447 94.9885 21.3363H107.821V21.3353ZM135.705 1.74285H162L160.77 8.12161H145.646L144.573 12.453H159.377L158.151 19.2634H143.343L142.27 23.5958H157.546L156.317 29.9746H129.871L135.705 1.74285ZM1 49L14.9817 36.04H160.153L157.166 49H1Z" fill="#656565" stroke="#656565" stroke-miterlimit="2.613"/>
</svg>
