<svg width="170" height="66" viewBox="0 0 170 66" fill="none" xmlns="http://www.w3.org/2000/svg">
<path d="M0 0H170V66H0V0Z" fill="#656565"/>
<path d="M161 54.2532C161 55.764 160.072 57 158.939 57H12.0613C10.9276 57 10 55.764 10 54.2532V11.7468C10 10.2357 10.9276 9 12.0613 9H158.938C160.072 9 161 10.2357 161 11.7468L161 54.2532Z" fill="white"/>
<path d="M144 40C144.005 40.0828 144.009 40.1678 144.009 40.2539L144.009 40.2382C144.009 40.1576 144.004 40.0793 144 40Z" fill="#656565"/>
<path d="M47.1302 49.859C44.673 52.3723 41.0355 52.9472 35.6772 52.9472H28.0582C17.3917 52.9472 14 50.2772 14 41.0647V36.0384H24.224C24.224 36.5098 24.1747 36.9809 24.1747 37.4C24.1747 42.0057 25.2562 43.4722 29.5332 43.4722H34.4487C38.381 43.4722 39.069 41.9018 39.069 38.0807V14.4714H49.9817V41.7973C49.9815 45.0949 48.8505 48.0797 47.1302 49.859ZM91.2032 27.8198C91.2032 24.7844 89.3835 23.5278 85.4517 23.5278H76.7017C69.6238 23.5278 67.9032 24.5219 67.9032 31.0134V36.3012C67.9032 42.2689 70.3118 43.4722 76.7017 43.4722H83.0432C89.089 43.4722 91.4975 42.7919 91.4975 38.237V37.8182H102.557C102.606 38.8136 102.656 39.7035 102.656 40.5936C102.656 45.3043 101.623 48.4456 99.0672 50.4353C96.3637 52.5807 92.0872 53 85.8447 53H73.6545C68.0013 53 64.02 52.7385 60.9233 50.1728C57.9245 47.6609 56.7938 44.2055 56.7938 39.0227V28.6578C56.7938 17.2457 61.4633 14 73.6545 14H85.8447C92.0877 14 96.3147 14.3143 98.9202 16.4603C101.23 18.3455 102.213 21.4858 102.213 26.04C102.213 26.7205 102.213 27.4536 102.164 28.1864H91.2035V27.8198H91.2032ZM109.678 52.5289V14.4714H141.875C149.887 14.4714 153.77 17.9267 153.77 25.0982C153.77 29.1815 152.099 31.6934 148.511 33.1604C153.033 33.9451 155 36.7715 155 42.2163C155 49.5454 151.461 52.5289 143.546 52.5289H109.678ZM142.563 26.1447C142.563 24.2607 141.432 23.0051 139.761 23.0051H120.591V29.286H139.761C141.58 29.286 142.563 28.1867 142.563 26.1447ZM143.742 40.384C143.742 38.3424 142.563 37.0335 140.744 37.0335H120.591V43.8917H140.744C142.661 43.8917 143.742 42.6349 143.742 40.384Z" fill="#656565"/>
<path d="M14 14H29V29H14V14Z" fill="#656565"/>
<path d="M17.2374 17.4182C17.6623 17.4904 25.04 18.7407 25.3675 18.7979C25.6952 18.855 26.2464 18.9361 26.4773 19.6498C26.5223 19.7891 27.5232 22.9079 27.5638 23.0426C27.604 23.1778 27.8949 23.8897 27.073 24.1557C26.9505 24.1957 20.0148 26.4487 19.8466 26.5011C19.6786 26.5548 19.0226 26.8398 18.7534 25.8544C18.7534 25.8544 16.6361 18.8656 16.5387 18.5496C16.4586 18.2937 16.4024 18.088 16.3901 17.9281C16.3482 17.3549 16.6898 17.3361 16.9702 17.3758C17.075 17.3907 17.1694 17.4071 17.2374 17.4182ZM17.0446 17.0281C17.231 17.0568 25.2857 18.4413 25.4912 18.4756C25.6988 18.5116 26.4914 18.5997 26.8084 19.542C26.8697 19.7233 27.8719 22.8625 27.92 23.0194C28.0964 23.5999 28.0209 24.2065 27.2867 24.4619C27.0441 24.5457 20.1324 26.831 20.047 26.8595C19.8571 26.9224 18.8419 27.3913 18.4724 26.1692C18.4724 26.1692 16.2349 18.8422 16.1687 18.6206C16.0652 18.2771 16.0005 17.986 16 17.7712C15.9997 16.8188 16.8646 17.0087 17.0446 17.0281Z" fill="white"/>
<path d="M25.3761 21.5263C25.3761 21.5263 25.632 21.5175 25.7039 21.5129C25.7768 21.5083 25.9132 21.502 25.9961 21.6537C26.0178 21.6929 26.1466 22.0697 26.1631 22.1138C26.1791 22.1588 26.217 22.3624 26.0477 22.3986C26.0162 22.4049 25.7155 22.4612 25.7155 22.4612L25.3761 21.5263ZM24.7986 19.7946C24.7986 19.7946 25.1297 19.8178 25.2117 19.8241C25.2931 19.831 25.3506 19.8663 25.3833 19.9344C25.4042 19.9767 25.5281 20.3231 25.5426 20.3607C25.5568 20.3983 25.6196 20.6061 25.4359 20.611C25.4078 20.6117 25.0782 20.611 25.0782 20.611L24.7986 19.7946ZM23.631 18.8031C23.631 18.8031 25.0225 18.9926 25.1522 19.0128C25.732 19.1009 25.9843 19.5457 26.0551 19.754C26.0794 19.8222 26.2402 20.3064 26.2608 20.3591C26.419 20.767 26.0178 20.9776 26.0178 20.9776C26.0178 20.9776 26.476 21.0572 26.6311 21.4076C26.6311 21.4076 26.9215 22.2142 26.9504 22.2956C26.9782 22.378 27.1854 23.0218 26.4796 23.2586C26.3853 23.2901 25.2493 23.5781 25.2493 23.5781L23.631 18.8031ZM18 18L20.2806 18.3252L20.6489 19.5066L20.117 19.4636C20.117 19.4636 21.4274 23.4592 21.4733 23.5832C21.6374 24.0334 21.7374 24.4998 21.0197 24.7243C20.9267 24.7535 20.258 24.937 20.1768 24.9553C19.7627 25.0476 19.2357 25.0492 19.0316 24.4367L18.1979 21.9661L19.2223 21.8976C19.2223 21.8976 19.6459 23.1656 19.6786 23.2595C19.7722 23.5248 19.8304 23.6266 20.1216 23.5624C20.3358 23.5151 20.3268 23.433 20.2703 23.2581C20.2466 23.1839 19.0133 19.3811 19.0133 19.3811L18.4298 19.3393L18 18Z" fill="#656565"/>
<path d="M20.6171 19.0112C20.7209 19.027 21.4891 19.1432 21.6181 19.1634C21.7481 19.1839 22.4626 19.2952 22.6525 19.9238C22.6987 20.0785 23.0762 21.1839 23.0762 21.1839L22.169 21.1756C22.169 21.1756 22.0004 20.6411 21.9642 20.5492C21.8768 20.3234 21.8717 20.2654 21.5989 20.2266C21.3234 20.1967 21.3377 20.3066 21.3998 20.4922C21.4308 20.5882 22.2562 23.1948 22.2931 23.3064C22.39 23.6031 22.4143 23.7203 22.7049 23.6665C22.9572 23.6107 22.9091 23.4821 22.8447 23.2638C22.7522 22.9786 22.6586 22.6937 22.5638 22.4091L23.4647 22.3455C23.4647 22.3455 23.9234 23.7303 23.9477 23.7949C23.9719 23.8594 24.1638 24.4205 23.6185 24.6617C23.5481 24.6927 23.5481 24.6975 23.476 24.7204C23.404 24.7431 22.6744 24.9387 22.6051 24.9568C22.5357 24.9738 21.8407 25.1775 21.6154 24.5241C21.593 24.461 20.1241 19.8678 20.0461 19.6422C19.9139 19.2606 20.0545 18.9349 20.6171 19.0112Z" fill="#656565"/>
</svg>
