<svg width="166" height="63" viewBox="0 0 166 63" fill="none" xmlns="http://www.w3.org/2000/svg">
<path fill-rule="evenodd" clip-rule="evenodd" d="M127.221 40.6807C126.148 43.9349 130.464 44.0367 131.411 46.469C131.987 47.2485 131.721 48.3911 132.689 48.9901C134.325 50.2153 136.801 50.5975 137.535 52.6375C138.082 53.7488 139.2 53.9848 140.317 54.01C140.767 53.768 141.37 53.5552 141.58 52.9814C141.907 52.1384 142.054 51.2348 141.447 50.4856C140.722 50.2173 140.116 49.6778 139.272 49.7111L139.424 49.8603C139.755 50.2506 139.698 50.9121 139.156 51.0957C138.491 50.5582 137.852 49.7484 137.759 48.8449C137.807 46.1383 134.398 46.2139 134.054 43.6888C134.173 43.238 134.625 43.0838 135.078 43.1725C136.774 44.3977 139.036 44.2384 140.672 45.6754C141.344 47.6862 144.155 48.4879 144.346 50.7135C146.071 51.6987 146.199 53.5925 146.9 55.1233C147.867 55.3895 148.951 55.204 149.704 54.5989C150.127 54.7169 150.279 55.1677 150.19 55.6214C150.675 56.2497 151.701 55.9764 152.363 55.8524C153.633 56.2094 153.037 57.7744 153.372 58.7354C153.495 59.0955 153.799 59.9365 153.136 60L156.032 59.9879L155.792 59.7479C155.727 58.7254 156.902 58.5086 157.564 58.086C157.709 56.7015 156.408 55.8957 156.011 54.6947C156.119 51.9568 153.367 50.7659 153.448 48.028C154.338 44.4139 150.013 42.8085 151.267 39.1923L151.026 39.1943C151.59 37.0262 150.01 34.8964 149.459 32.7636C150.232 30.1427 150.247 26.5628 148.939 24.193C148.876 23.471 149.658 23.1372 150.324 23.2854C153.253 23.7523 156.604 24.431 159.321 24.1476C158.958 24.0599 158.776 23.6989 158.683 23.3691C158.893 22.9466 159.343 22.4636 159.948 22.6108C161.517 22.635 162.811 21.5772 164.229 21.6014L163.744 21.0921C163.679 19.7388 165.461 20.3328 166 19.6975C161.536 19.9879 156.789 18.324 151.931 18.2252C148.668 17.6665 146.18 21.558 143.213 19.044C141.885 18.9593 140.349 19.8387 139.288 18.7899L139.895 12.3501C141.276 10.7195 143.637 12.4853 144.926 10.5551C146.133 10.4896 147.912 10.06 148.733 10.9293C149.456 10.9867 149.906 10.3827 150.387 9.89966C149.902 9.69092 149.27 9.8442 148.727 9.78672C148.363 9.54773 147.79 9.36924 147.847 8.79747C148.807 7.41089 150.443 8.81662 151.645 7.87879C151.747 7.02063 150.545 6.66062 150.371 5.89725V6.14028C150.375 6.8018 149.62 6.80482 149.106 6.77759C148.652 6.4791 148.529 6.02834 148.588 5.51606C148.888 5.15404 149.218 4.88278 149.732 5.00076C147.497 4.68009 145.294 4.35739 143.029 4.12646C143.212 4.72748 142.731 5.03 142.401 5.39202C142.01 5.69455 141.555 5.42531 141.253 5.15707C140.678 4.76782 140.946 4.19503 141.247 3.77251L140.733 3.77553C140.219 3.56679 139.584 3.26829 139.854 2.51601L137.83 2.52408C136.652 2.2871 137.401 0.690768 137.186 0L135.773 1.38961C135.633 4.00646 132.711 4.83135 130.872 5.8317C130.791 7.84753 128.744 8.81864 127.602 10.2677L128.361 10.896C128.726 11.8278 127.826 12.6426 127.103 13.1579C126.628 15.2957 126.638 17.6121 125.591 19.4817C125.718 21.0155 124.334 22.1338 124.492 23.5174C122.483 26.6848 123.137 31.2832 123 34.8944C123.885 37.0554 126.215 38.5791 127.221 40.6807ZM134.062 45.3154C134.367 45.9144 135.333 45.8811 135.094 46.7231C134.796 47.2667 134.251 47.2395 133.709 47.2092C132.891 46.6425 132.978 45.6492 132.43 44.9604C131.52 43.6404 130.729 42.2901 129.368 41.1829C129.424 40.3398 130.115 39.7671 130.9 39.523C133.648 40.4135 132.244 43.6969 134.062 45.3154ZM137.704 35.9734C137.31 35.7939 137.459 35.3724 137.336 35.1031C137.605 34.3196 138.543 34.7976 138.719 33.9525C139.283 31.6654 134.817 31.2933 137.674 29.2956C139.034 29.6808 140.782 29.342 141.605 30.783C141.578 31.5051 142.214 32.1031 141.883 32.7989C140.166 33.3464 139.907 36.3263 137.704 35.9734ZM150.327 52.1928L149.936 52.4651C148.876 51.4173 146.851 51.0946 146.754 49.3218C143.94 47.6499 144.95 43.9157 141.927 42.7853C141.563 42.2165 140.986 41.5863 141.405 40.8925C142.064 39.8659 143.057 39.1096 144.295 39.2245C145.172 39.6128 144.724 40.5778 145.208 41.1173C147.751 43.0001 149.211 45.7026 149.043 48.6805C149.985 49.6385 150.564 50.899 150.327 52.1928ZM154.895 54.4597C154.957 55.1515 154.356 55.7848 153.755 55.9683C153.609 55.9734 153.464 55.9435 153.333 55.8812C153.201 55.8189 153.086 55.726 152.998 55.6104C152.451 54.6221 153.618 52.6012 151.959 52.457C151.594 51.9175 152.106 51.4345 152.465 51.0412C154.036 51.4254 154.074 53.3202 154.895 54.4597ZM152.817 48.5433C152.425 48.9961 151.764 49.2089 151.189 48.9094C150.493 48.3427 150.308 47.5601 150.424 46.6586C151.297 46.2623 150.118 45.4868 151.053 45.1228C152.141 45.8398 153.052 47.068 152.817 48.5433ZM150.003 39.9526C150.31 41.2152 150.438 42.5685 150.926 43.7382L151.287 43.8582C150.835 43.9197 150.928 44.3997 150.929 44.7618C150.115 44.915 149.927 43.6525 149.382 43.113C148.082 42.4253 146.961 41.319 146.712 39.8457C146.59 39.1842 146.918 38.4612 147.581 38.3391C148.787 38.2111 149.276 39.2628 150.003 39.9526ZM139.536 19.9335C141.225 19.7761 142.526 20.6131 143.976 21.0578C144.246 20.2743 145.091 20.6615 145.606 20.9308C148.422 23.2955 149.224 27.4432 148.063 30.4866C147.913 31.2086 147.435 32.0537 146.923 32.3864C146.682 32.4772 145.927 32.1797 145.656 32.6617C145.962 33.5935 147.231 33.8275 147.447 34.9105C147.6 35.45 147.239 35.8736 146.818 36.0551C145.042 36.9667 144.785 33.418 143.01 34.6887C142.769 34.7199 142.526 34.6614 142.374 34.4527C142.342 33.9091 142.884 33.5169 143.275 33.3041H143.516C143.564 30.295 141.2 27.899 139.44 25.6189C139.461 23.7231 138.759 21.681 139.536 19.9335ZM137.077 9.71613C138.073 9.74235 138.288 10.9444 138.745 11.6039C137.583 15.3996 136.968 19.6128 136.381 23.4659C136.14 23.5567 136.018 23.3772 135.867 23.227C135.334 18.5075 136.129 13.9918 137.077 9.71613ZM128.055 30.8405C129.835 31.134 131.322 32.5125 132.502 33.9797C132.266 34.5828 132.99 35.0003 133.383 35.1203C134.68 34.9035 135.618 35.8604 136.557 36.2194C136.773 37.0605 135.807 37.244 135.295 37.488C133.665 37.2541 132.002 36.9919 130.373 36.7569C129.315 36.2799 128.043 35.563 127.557 34.5132C127.642 33.3091 126.306 31.3901 128.055 30.8405Z" fill="#656565"/>
<path fill-rule="evenodd" clip-rule="evenodd" d="M150 6.38944L149.998 6C149.968 6.12813 149.968 6.26164 150 6.38944ZM9.10779 50.9022L15.6247 50.8729L15.5935 43.4209C15.803 43.1164 16.1002 42.5145 16.612 42.6622C18.1261 45.3094 19.4297 48.081 20.6739 50.8516L27.8849 50.8193C25.9738 46.5738 23.7918 42.4488 22.1497 38.0506L27.8113 33.7415L24.776 33.7556L15.9682 40.1293L15.5764 39.7379L15.5502 33.7951L9 33.702C9.17428 39.3444 8.9325 45.1091 9.10779 50.9022ZM32.661 50.7131C32.661 50.7131 33.1395 49.2038 33.6755 48.7729L40.5863 48.7456C41.2492 49.3758 41.1908 50.2923 41.8536 50.8334L48.5579 50.8871L41.3026 33.6848L38.6279 33.697L30.888 50.8082C31.8178 51.2896 32.661 50.7131 32.661 50.7131ZM37.1601 41.4251H37.4009C38.1897 43.2621 39.2958 45.0859 39.7854 47.0462L34.7806 46.9886C35.1916 45.1456 36.3864 43.2702 37.1601 41.4251ZM55.3579 39.3464C57.0856 42.6895 59.1811 47.3952 60.7899 50.8294C61.6019 50.8254 62.0814 50.794 62.8037 50.9417C64.5334 47.6147 68.557 40.1445 68.557 40.1445L68.5691 50.9154L75.2744 50.9649L75.1999 33.7789L68.9197 33.6858C67.0983 36.59 66.1513 39.9432 64.2705 42.6966C62.6647 39.747 61.3893 36.6749 59.8147 33.7253L53.6544 33.7506L53.6071 50.8597L55.23 50.8516L55.3579 39.3464ZM82.9871 48.3218C84.5889 48.7173 89.5847 48.6364 89.5847 48.6364C89.5847 48.6364 90.2103 49.3556 90.4188 50.8213L97.0889 50.794L89.9937 33.7162L87.2001 33.7263L79.9609 50.7464C81.739 51.7337 82.149 49.0511 82.9871 48.3218ZM86.0809 41.2157L88.5108 46.9077L83.4596 46.7792L86.0809 41.2157ZM99.9398 35.453C101.532 35.5673 103.363 35.107 104.719 35.8242C104.005 37.5782 102.267 39.0935 102.607 41.1449C103.631 41.2612 104.858 40.803 105.644 41.4929C104.005 44.6084 102.336 47.8443 100.997 50.8992L108.059 50.8678L112.561 42.2495L112.705 40.8313C112.156 39.0824 110.149 40.3883 109.154 39.4587C109.866 37.4953 111.21 35.7979 112.044 33.8932L100.174 33.6737C99.3324 33.8861 100.179 34.9391 99.9398 35.453Z" fill="#656565"/>
<path fill-rule="evenodd" clip-rule="evenodd" d="M1.88271 54.9104H118.21C118.709 54.9096 119.187 54.7087 119.54 54.3517C119.893 53.9948 120.092 53.5108 120.093 53.006V29.9044C120.092 29.3994 119.894 28.9152 119.541 28.5581C119.188 28.201 118.709 28.0003 118.21 28H1.88271C1.38355 28.0005 0.904983 28.2014 0.552023 28.5584C0.199062 28.9154 0.000534435 29.3995 0 29.9044V53.006C0 54.0557 0.844947 54.9104 1.88271 54.9104ZM1.20433 29.9044C1.20433 29.5256 1.50819 29.2182 1.88271 29.2182H118.21C118.584 29.2182 118.888 29.5266 118.888 29.9044V53.006C118.888 53.188 118.817 53.3625 118.69 53.4912C118.562 53.6199 118.39 53.6922 118.21 53.6922H1.88271C1.70279 53.6922 1.53024 53.6199 1.40302 53.4912C1.2758 53.3625 1.20433 53.188 1.20433 53.006V29.9044ZM0.387646 63H165V60.246H0.387646V63Z" fill="#656565"/>
</svg>
