<svg width="206" height="35" viewBox="0 0 206 35" fill="none" xmlns="http://www.w3.org/2000/svg">
<path d="M106.492 23.6971H101.581C101.353 23.6971 101.067 23.7542 100.839 23.8684C100.61 24.0968 100.496 24.3252 100.439 24.6107C99.8108 26.8377 98.5545 27.8084 96.3276 27.8084C93.7009 27.8084 92.3876 26.2667 92.2734 23.2403C92.2163 22.5551 92.2163 21.5272 92.2163 20.1568C92.2163 18.7864 92.2163 17.8156 92.2734 17.1304C92.3876 14.104 93.758 12.5623 96.3276 12.5623C98.6116 12.5623 99.8108 13.4188 100.439 15.76C100.496 16.0455 100.667 16.2739 100.839 16.5023C101.01 16.6736 101.295 16.7307 101.524 16.7307H106.435C106.663 16.7307 106.834 16.6736 107.006 16.5023C107.12 16.331 107.234 16.1597 107.234 15.9884C107.12 9.82143 101.638 7.19476 96.3276 7.19476C90.2177 7.19476 85.7067 10.3353 85.5354 17.0162C85.5354 17.7014 85.5354 18.7864 85.5354 20.271C85.5354 21.7556 85.5354 22.7835 85.5354 23.4687C85.7638 30.3209 90.1606 33.2901 96.3276 33.2901C101.524 33.2901 107.12 30.7206 107.234 24.4965C107.234 24.3252 107.177 24.0968 107.006 23.9826C106.891 23.8113 106.72 23.6971 106.492 23.6971Z" fill="#1D1D1B"/>
<path d="M130.303 7.53738H113.629C111.916 7.59449 110.603 8.96492 110.603 10.6209V12.4481C110.603 12.962 111.002 13.3617 111.516 13.3617H116.541C117.112 13.3617 117.569 13.8185 117.569 14.4467C117.569 14.4467 117.569 14.4467 117.569 14.5038V31.9197C117.569 32.1481 117.626 32.3765 117.855 32.5478C118.026 32.7191 118.254 32.8333 118.483 32.7762H123.336C123.565 32.7762 123.793 32.7191 123.965 32.5478C124.136 32.3765 124.25 32.1481 124.25 31.9197V15.3032C124.25 15.189 124.25 15.1319 124.193 15.0177C124.022 14.3325 124.421 13.6472 125.107 13.4759C125.221 13.4759 125.278 13.4188 125.392 13.4188H130.303C130.76 13.4188 131.216 13.0762 131.216 12.6194V12.5623V8.50811C131.216 7.93709 130.817 7.53738 130.303 7.53738C130.36 7.53738 130.36 7.53738 130.303 7.53738Z" fill="#1D1D1B"/>
<path d="M146.52 7.53738H138.868C137.212 7.53738 135.842 8.85072 135.842 10.5067C135.842 10.5638 135.842 10.6209 135.842 10.678V31.8626C135.899 32.3194 136.242 32.7191 136.698 32.7762H141.666C142.123 32.7762 142.523 32.3765 142.523 31.8626V25.1817C142.523 24.6107 142.922 24.0968 143.55 24.0968C143.55 24.0968 143.551 24.0968 143.608 24.0968H146.52C151.602 24.0968 156.113 22.0983 156.113 15.8742C156.113 9.87855 151.944 7.53738 146.52 7.53738ZM146.348 18.9577H143.55C143.265 18.9577 143.037 18.8435 142.808 18.6151C142.58 18.4438 142.466 18.1583 142.466 17.8157V14.6751C142.466 14.1041 142.18 13.533 141.78 13.1904C141.552 13.0191 141.552 13.0191 142.009 12.7907C142.351 12.7336 142.751 12.6765 143.094 12.6765H146.406C148.404 12.6765 149.432 13.7614 149.432 15.8171C149.432 17.8728 148.233 18.9577 146.348 18.9577Z" fill="#1D1D1B"/>
<path d="M70.9744 7.53738H63.3228C62.9802 7.53738 62.6375 7.59449 62.2949 7.70869C61.0958 8.1655 60.2964 9.36463 60.2964 10.678V31.8626C60.3535 32.3194 60.6961 32.7191 61.1529 32.7762H66.1207C66.6347 32.7762 67.0344 32.3765 67.0344 31.8626V25.1817C67.0344 24.6107 67.4341 24.0968 68.0622 24.0968C68.0622 24.0968 68.0622 24.0968 68.1193 24.0968H71.0315C76.1135 24.0968 80.6245 22.0983 80.6245 15.8742C80.5674 9.87855 76.4561 7.53738 70.9744 7.53738ZM70.8031 18.9577H68.0051C67.7196 18.9577 67.4341 18.8435 67.2628 18.6151C67.0344 18.4438 66.9202 18.1583 66.9202 17.8157V14.6751C66.9202 14.1041 66.6347 13.533 66.2349 13.1904C66.0065 13.0191 66.0065 13.0191 66.4062 12.7907C66.7489 12.7336 67.1486 12.6765 67.4912 12.6765H70.8031C72.8016 12.6765 73.8294 13.7614 73.8294 15.8171C73.8294 17.8728 72.6874 18.9577 70.8031 18.9577Z" fill="#F29A00"/>
<path d="M205.734 8.50812V31.9197C205.734 32.1481 205.62 32.3765 205.505 32.5478C205.334 32.7192 205.106 32.8334 204.877 32.8334H200.481C199.967 32.8334 199.567 32.4336 199.567 31.9197V19.1861C199.281 19.3003 199.167 19.5287 198.882 19.9284C198.596 20.3281 198.368 20.7849 198.025 21.356C197.683 21.927 197.34 22.4409 196.883 23.1261C196.426 23.8113 195.97 24.6107 195.341 25.7528C194.314 27.4658 193.057 29.4644 191.63 31.7484C191.23 32.4907 190.488 32.9476 189.631 32.8905H186.262C185.805 32.8334 185.406 32.4336 185.406 31.9768V10.678C185.349 8.96493 186.719 7.53739 188.432 7.53739H190.773L191.002 7.59449C191.401 7.7087 191.687 8.0513 191.63 8.45102V20.4994C191.63 20.6136 191.687 20.6707 191.801 20.6707L192.372 19.9284L194.371 16.7878C194.77 16.1026 195.284 15.2461 195.97 14.2183C196.883 12.7336 197.968 11.0777 199.11 9.25044L199.453 8.67942C199.852 7.9371 200.595 7.48029 201.451 7.53739H204.82C205.049 7.53739 205.277 7.59449 205.448 7.7658C205.62 7.9942 205.734 8.22261 205.734 8.50812Z" fill="#1D1D1B"/>
<path d="M194.085 5.71015C193.685 5.71015 193.514 5.53885 193.514 5.13913C193.514 4.96783 193.571 4.79653 193.685 4.68232L196.769 0.742319C196.94 0.513913 197.169 0.342609 197.397 0.171304C197.625 0.0571015 197.854 0 198.082 0H203.164C203.336 0 203.507 0.0571015 203.678 0.171304C203.792 0.342609 203.85 0.513913 203.85 0.742319C203.85 0.913624 203.792 1.08493 203.678 1.19913L198.996 5.19624C198.825 5.36754 198.596 5.48174 198.368 5.59595C198.139 5.71015 197.911 5.76725 197.683 5.76725L194.085 5.71015Z" fill="#F29A00"/>
<path d="M52.1879 12.3073C52.0166 11.9251 51.8453 11.6066 51.674 11.2881C50.8746 9.95037 49.961 9.18597 48.9331 9.12227C46.1923 8.99487 43.794 14.0272 43.5656 20.3335C43.5085 21.6712 43.5656 22.9453 43.7369 24.283C43.9082 26.3214 44.4792 28.2324 45.4499 29.9523C46.1923 31.2263 47.5627 32.5003 49.2186 31.6722C50.8746 30.8441 51.6169 29.3153 52.1879 27.8502C52.9873 25.6207 53.4442 23.2638 53.5013 20.8431C53.6726 17.9129 53.2158 14.9827 52.1879 12.3073ZM48.2479 28.0413C46.5349 27.9776 45.2786 24.6015 45.4499 20.3972C45.6213 16.193 47.0488 12.9443 48.8189 13.008C50.5891 13.0717 51.7882 16.4478 51.6169 20.652C51.4456 24.8563 49.961 28.105 48.2479 28.0413Z" fill="#F29A00"/>
<path d="M48.1336 14.2183C48.4192 14.4731 49.6183 15.9382 49.3899 20.2699C49.1615 24.4104 47.6197 25.9392 47.22 26.2577C47.0487 26.0029 46.9345 25.7481 46.8203 25.4933C47.1629 25.3022 48.6476 24.0282 48.876 20.0788C49.1044 16.1293 47.9623 14.919 47.7339 14.6642C47.8481 14.4731 47.9623 14.3457 48.1336 14.2183Z" fill="#F29A00"/>
<path d="M52.1881 8.86746C51.5028 7.21125 50.2466 5.93724 48.7049 5.36394C47.5628 4.91804 46.3637 4.66324 45.1646 4.53584C44.7649 4.53584 44.3081 4.47214 43.8512 4.47214C40.7678 4.34474 37.8556 5.23654 36.2567 6.82905C35.7428 7.33865 35.286 7.84826 34.8863 8.48526C34.715 8.61266 34.3724 9.18596 33.9727 9.24966C33.3446 9.44077 32.9449 10.0778 32.9449 10.7785L33.1733 11.6066C32.7164 12.6895 32.3738 13.8361 32.0883 14.9827C31.917 15.1101 31.8599 16.1293 31.346 16.3841C30.6037 16.83 30.4895 18.104 30.8892 18.741L31.4602 19.5054C31.4602 19.6328 31.4602 19.6965 31.4602 19.8239C31.4031 21.289 31.4602 22.7541 31.6315 24.1556C31.5173 24.283 31.7457 24.9837 31.4602 25.3659C31.1747 25.7481 31.346 26.7673 31.8028 27.1495L32.2025 27.4043C32.3738 28.2324 32.6593 28.9968 32.9449 29.7612H33.002V29.8886C33.4588 31.1626 34.2582 32.3092 35.286 33.1373C35.4573 33.2647 35.6857 33.3921 35.857 33.4558C37.8556 34.4113 40.0254 34.9209 42.1953 34.9846C43.9083 35.0483 45.6214 34.9209 47.2773 34.475H47.3344V34.4113C47.3344 34.4113 47.3344 34.3476 47.2773 34.3476C44.1368 33.5832 41.8527 27.5317 42.1382 20.2698C42.3666 14.6642 44.0225 9.82297 46.3066 7.78456L46.3637 7.72085C47.0489 7.08385 47.9054 6.70165 48.8191 6.70165C49.9611 6.76535 51.046 7.52975 52.0168 8.86746C52.0168 8.93116 52.0739 8.93116 52.0739 8.93116C52.0739 8.93116 52.1881 8.93116 52.1881 8.86746ZM38.0269 14.7916C38.5979 14.3457 39.0547 13.645 39.226 12.8806C39.226 12.8169 39.2831 12.8169 39.3402 12.8169L40.4823 12.6895C40.7678 12.6258 41.1104 12.8806 41.1104 13.1991V13.2628C41.1104 13.645 40.9962 14.0272 40.7678 14.282C40.4252 14.7279 39.9112 14.9827 39.3973 14.9827H38.1982C38.0269 14.9827 37.9698 14.8553 38.0269 14.7916ZM36.7707 23.0089C37.3988 21.9897 37.5701 20.7157 37.3988 19.5054C37.3988 19.378 37.4559 19.3143 37.513 19.3143L39.1689 18.6136C39.6828 18.3588 40.3109 18.6136 40.5394 19.1869C40.7678 19.6965 40.8249 20.3335 40.6536 20.9068C40.368 21.7986 39.7399 22.4356 38.9405 22.6904L37.0562 23.3274C36.8849 23.3274 36.6565 23.1363 36.7707 23.0089ZM40.1396 29.5701L38.8834 30.2708C38.7692 30.3345 38.5979 30.2708 38.655 30.0797C38.9405 29.1879 38.8834 28.2324 38.5408 27.4043C38.4837 27.3406 38.5408 27.2769 38.5979 27.2132L39.6828 26.4488C40.0254 26.194 40.5394 26.3214 40.7678 26.7036C41.0533 27.0858 41.1675 27.5317 41.1104 27.9776C41.0533 28.6783 40.7107 29.2516 40.1396 29.5701Z" fill="#F29A00"/>
<path d="M180.526 12.3073C180.354 11.9251 180.183 11.6066 180.012 11.2881C179.212 9.95037 178.299 9.18597 177.271 9.12227C174.53 8.99487 172.132 14.0272 171.903 20.3335C171.846 21.6712 171.903 22.9453 172.075 24.283C172.246 26.3214 172.817 28.2324 173.788 29.9523C174.53 31.2263 175.9 32.5003 177.556 31.6722C179.212 30.8441 179.955 29.3153 180.526 27.8502C181.325 25.6207 181.782 23.2638 181.839 20.8431C182.01 17.9129 181.553 14.9827 180.526 12.3073ZM176.586 28.0413C174.873 27.9776 173.616 24.6015 173.788 20.3972C173.959 16.193 175.386 12.9443 177.157 13.008C178.927 13.0717 180.126 16.4478 179.955 20.652C179.783 24.8563 178.299 28.105 176.586 28.0413Z" fill="#1D1D1B"/>
<path d="M176.471 14.2183C176.757 14.4731 177.956 15.9382 177.728 20.2699C177.499 24.4104 175.957 25.9392 175.558 26.2577C175.386 26.0029 175.272 25.7481 175.158 25.4933C175.501 25.3022 176.985 24.0282 177.214 20.0788C177.442 16.1293 176.3 14.919 176.072 14.6642C176.186 14.4731 176.3 14.3457 176.471 14.2183Z" fill="#1D1D1B"/>
<path d="M180.526 8.86746C179.84 7.21125 178.584 5.93724 177.043 5.36394C175.9 4.91804 174.701 4.66324 173.502 4.53584C173.103 4.53584 172.646 4.47214 172.189 4.47214C169.105 4.34474 166.193 5.23654 164.594 6.82905C164.08 7.33865 163.624 7.84826 163.224 8.48526C163.053 8.61266 162.71 9.18596 162.31 9.24966C161.682 9.44077 161.283 10.0778 161.283 10.7785L161.511 11.6066C161.054 12.6895 160.711 13.8361 160.426 14.9827C160.255 15.1101 160.198 16.1293 159.684 16.3841C158.941 16.83 158.827 18.104 159.227 18.741L159.798 19.5054C159.798 19.6328 159.798 19.6965 159.798 19.8239C159.741 21.289 159.798 22.7541 159.969 24.1556C159.855 24.283 160.083 24.9837 159.798 25.3659C159.512 25.7481 159.684 26.7673 160.14 27.1495L160.54 27.4043C160.711 28.2324 160.997 28.9968 161.283 29.7612H161.34V29.8886C161.796 31.1626 162.596 32.3092 163.624 33.1373C163.795 33.2647 164.023 33.3921 164.195 33.4558C166.193 34.4113 168.363 34.9209 170.533 34.9846C172.246 35.0483 173.959 34.9209 175.615 34.475H175.672V34.4113C175.672 34.4113 175.672 34.3476 175.615 34.3476C172.474 33.5832 170.19 27.5317 170.476 20.2698C170.704 14.6642 172.36 9.82297 174.644 7.78456L174.701 7.72085C175.387 7.08385 176.243 6.70165 177.157 6.70165C178.299 6.76535 179.384 7.52975 180.354 8.86746C180.354 8.93116 180.412 8.93116 180.412 8.93116C180.412 8.93116 180.526 8.93116 180.526 8.86746ZM166.365 14.7916C166.936 14.3457 167.392 13.645 167.564 12.8806C167.564 12.8169 167.621 12.8169 167.678 12.8169L168.82 12.6895C169.105 12.6258 169.448 12.8806 169.448 13.1991V13.2628C169.448 13.645 169.334 14.0272 169.105 14.282C168.763 14.7279 168.249 14.9827 167.735 14.9827H166.536C166.365 14.9827 166.307 14.8553 166.365 14.7916ZM165.108 23.0089C165.736 21.9897 165.908 20.7157 165.736 19.5054C165.736 19.378 165.794 19.3143 165.851 19.3143L167.507 18.6136C168.02 18.3588 168.649 18.6136 168.877 19.1869C169.105 19.6965 169.163 20.3335 168.991 20.9068C168.706 21.7986 168.078 22.4356 167.278 22.6904L165.394 23.3274C165.223 23.3274 164.994 23.1363 165.108 23.0089ZM168.477 29.5701L167.221 30.2708C167.107 30.3345 166.936 30.2708 166.993 30.0797C167.278 29.1879 167.221 28.2324 166.878 27.4043C166.821 27.3406 166.878 27.2769 166.936 27.2132L168.02 26.4488C168.363 26.194 168.877 26.3214 169.105 26.7036C169.391 27.0858 169.505 27.5317 169.448 27.9776C169.391 28.6783 169.048 29.2516 168.477 29.5701Z" fill="#1D1D1B"/>
<path d="M28 32.0976C28 32.3796 27.8993 32.6052 27.7482 32.718C27.5971 32.8872 27.3957 33 27.1439 33H0.856115C0.604317 33 0.402878 32.9436 0.251799 32.718C0.100719 32.5488 0 32.3232 0 31.9848V30.4056C0 28.6009 1.30935 27.1909 2.8705 27.1909H3.97842V18.3926C3.97842 17.885 3.97842 17.4902 4.02878 17.1518C4.17986 9.93275 8.71223 7 14.4532 7H21.2518C22.7626 7.0564 23.9712 8.52278 23.9712 10.2148V27.1345H27.0432C27.4964 27.1345 27.8993 27.6421 27.8993 28.0933V32.0976H28ZM10.3237 27.1909H17.8273V14.5575C17.8273 13.4859 18.7338 12.5271 19.6403 12.5271H14.6547C11.8345 12.5271 10.4245 14.1063 10.3741 17.2082C10.3237 17.5466 10.3237 17.9414 10.3237 18.3926V27.1909Z" fill="#F29A00"/>
</svg>
