<svg width="191" height="35" viewBox="0 0 191 35" fill="none" xmlns="http://www.w3.org/2000/svg">
<path d="M164.756 13.8965C165.693 16.3663 166.109 19.0257 165.976 21.6863C165.941 23.9026 165.547 26.0956 164.81 28.1681C164.304 29.5342 163.574 31.0108 162.153 31.7607C160.732 32.5106 159.431 31.3596 158.756 30.2202C157.88 28.619 157.341 26.8338 157.176 24.9882C157.027 23.7881 156.972 22.5766 157.013 21.3666C157.193 15.5533 159.344 10.9027 161.816 11.0015C162.725 11.0306 163.585 11.7108 164.299 12.9606C164.469 13.2624 164.621 13.575 164.756 13.8965ZM164.271 21.6224C164.391 17.7391 163.264 14.6465 161.707 14.5941C160.149 14.5418 158.837 17.5473 158.717 21.4305C158.598 25.3138 159.725 28.4064 161.282 28.4588C162.839 28.5111 164.152 25.5114 164.271 21.6224Z" fill="white"/>
<path d="M160.965 15C161.177 15.2358 162.146 16.5755 161.981 20.5086C161.817 24.3152 160.626 25.6837 160.301 26C160.186 25.7743 160.085 25.5378 160 25.2927C160.245 25.0857 161.412 23.9357 161.558 20.3476C161.704 16.7595 160.838 15.644 160.616 15.414C160.719 15.2598 160.836 15.1209 160.965 15Z" fill="white"/>
<path d="M164.997 10.1014C163.653 6.91745 160.958 6.13943 157.189 6.00777C154.303 5.90603 151.603 6.80973 150.135 8.35979C149.66 8.83962 149.225 9.36224 148.835 9.92181C148.661 10.0595 148.368 10.6101 147.963 10.6759C147.673 10.7706 147.422 10.9684 147.252 11.2363C147.082 11.5043 147.003 11.8261 147.03 12.1481L147.243 12.9322C146.83 13.9818 146.508 15.0696 146.281 16.1819C146.113 16.3195 146.073 17.2292 145.584 17.5045C144.959 17.8576 144.83 19.0785 145.224 19.659L145.786 20.3832C145.786 20.4909 145.786 20.5927 145.786 20.7004C145.743 22.0874 145.799 23.476 145.955 24.8538C145.843 24.9675 146.09 25.6797 145.798 26.0029C145.505 26.3261 145.679 27.3555 146.135 27.6906L146.512 27.948C146.701 28.7007 146.943 29.4369 147.238 30.1504H147.277V30.2461C147.723 31.4516 148.475 32.502 149.448 33.2804C149.63 33.3971 149.818 33.503 150.011 33.5976C151.864 34.4775 153.866 34.9498 155.895 34.9861C157.491 35.0544 159.087 34.8709 160.632 34.4414C160.654 34.4449 160.677 34.4449 160.699 34.4414C160.699 34.4414 160.699 34.4414 160.699 34.3995C160.7 34.3899 160.699 34.3801 160.696 34.371C160.693 34.3619 160.688 34.3536 160.681 34.3467C160.675 34.3398 160.667 34.3346 160.659 34.3313C160.65 34.328 160.641 34.3268 160.632 34.3277C157.695 33.6634 155.569 27.924 155.755 21.0535C155.98 13.7999 158.742 8.0007 161.914 8.10843C162.994 8.15032 164.013 8.84455 164.873 10.1432C164.907 10.1851 164.918 10.1971 164.935 10.1971C164.952 10.1971 165.014 10.1133 164.997 10.1014ZM151.873 15.8408C152.414 15.3908 152.793 14.757 152.948 14.0453C152.953 14.0193 152.967 13.9961 152.986 13.9788C153.005 13.9616 153.029 13.9514 153.054 13.9496L154.067 13.8478C154.141 13.835 154.217 13.8392 154.29 13.8602C154.363 13.8811 154.43 13.9184 154.488 13.9693C154.546 14.0203 154.593 14.0839 154.627 14.1559C154.66 14.2278 154.678 14.3064 154.68 14.3865C154.693 14.7298 154.587 15.0662 154.382 15.3321C154.221 15.534 154.023 15.698 153.799 15.8134C153.575 15.9288 153.331 15.9932 153.083 16.0023H151.957C151.851 16.0383 151.817 15.9126 151.873 15.8408ZM150.984 23.9082C150.81 23.9741 150.635 23.8065 150.714 23.6509C151.283 22.6345 151.483 21.4319 151.277 20.2695C151.271 20.2278 151.279 20.1851 151.299 20.1489C151.32 20.1128 151.352 20.0856 151.389 20.072L152.942 19.3718C153.059 19.3149 153.185 19.2832 153.314 19.2786C153.442 19.274 153.571 19.2966 153.691 19.345C153.811 19.3934 153.921 19.4667 154.015 19.5607C154.108 19.6547 154.183 19.7674 154.236 19.8925C154.474 20.4016 154.52 20.9881 154.365 21.5323C154.243 21.9354 154.034 22.3028 153.756 22.606C153.478 22.9092 153.138 23.1398 152.762 23.2798L150.984 23.9082ZM154.804 28.3729C154.777 28.6791 154.682 28.974 154.525 29.2324C154.368 29.4908 154.155 29.7051 153.904 29.8571L152.717 30.5454C152.599 30.6112 152.447 30.5094 152.481 30.3897C152.734 29.5554 152.694 28.6516 152.368 27.8462C152.361 27.8321 152.357 27.8167 152.356 27.8009C152.355 27.7851 152.357 27.7692 152.362 27.7542C152.366 27.7391 152.374 27.7253 152.384 27.7133C152.393 27.7014 152.405 27.6916 152.419 27.6846L153.431 26.9724C153.595 26.8594 153.793 26.8186 153.984 26.8589C154.176 26.8991 154.344 27.0172 154.455 27.1879C154.706 27.5231 154.83 27.9455 154.804 28.3729Z" fill="white"/>
<path d="M41.7608 12.8965C42.6954 15.3668 43.1099 18.0261 42.9751 20.6863C42.9433 22.9029 42.5489 25.0964 41.8098 27.1681C41.3034 28.5226 40.5791 30.0108 39.1578 30.7607C37.7365 31.5106 36.435 30.3596 35.7543 29.2202C34.8789 27.619 34.3401 25.8338 34.1751 23.9882C34.0283 22.7878 33.9736 21.5765 34.0118 20.3666C34.1915 14.5533 36.3425 9.90272 38.8147 10.0015C39.7241 10.0306 40.5845 10.7108 41.2979 11.9606C41.4677 12.2636 41.6222 12.576 41.7608 12.8965ZM41.2707 20.6224C41.3905 16.7391 40.2632 13.6465 38.7058 13.5941C37.1484 13.5418 35.836 16.5473 35.7162 20.4305C35.5964 24.3138 36.7291 27.4064 38.2811 27.4588C39.8331 27.5111 41.1509 24.5114 41.2707 20.6224Z" fill="#F29A00"/>
<path d="M37.9623 15C38.1746 15.2358 39.1463 16.5755 38.9812 20.5086C38.8161 24.3152 37.6227 25.6837 37.3019 26C37.1826 25.7768 37.0814 25.5399 37 25.2927C37.2406 25.0857 38.4152 23.9357 38.5567 20.3476C38.6982 16.7595 37.8349 15.644 37.6132 15.414C37.7159 15.2598 37.833 15.1209 37.9623 15Z" fill="#F29A00"/>
<path d="M41.9842 10.0988C40.6406 6.91689 37.9477 6.13935 34.1811 6.00776C31.297 5.90609 28.5986 6.80923 27.1312 8.35833C26.6573 8.83659 26.2246 9.35903 25.8382 9.91939C25.6583 10.057 25.366 10.6072 24.9612 10.673C24.6709 10.7676 24.4199 10.9653 24.25 11.2331C24.0802 11.5009 24.0018 11.8225 24.028 12.1443L24.2416 12.9279C23.8284 13.9769 23.5066 15.064 23.2803 16.1756C23.1116 16.3132 23.0723 17.2223 22.5888 17.4974C21.9591 17.8503 21.8298 19.0704 22.2234 19.6506L22.7856 20.3743C22.7856 20.482 22.7856 20.5836 22.7856 20.6913C22.7418 22.0775 22.7982 23.4652 22.9542 24.8422C22.8418 24.9558 23.0891 25.6676 22.8024 25.9905C22.4314 26.4032 22.6844 27.3423 23.1341 27.6772L23.5108 27.9344C23.6995 28.6866 23.942 29.4224 24.236 30.1354H24.281V30.2311C24.7269 31.4359 25.4781 32.4856 26.451 33.2635C26.6327 33.3802 26.8204 33.486 27.0132 33.5805C28.8746 34.4708 30.8868 34.949 32.9274 34.9861C34.5219 35.0544 36.1171 34.871 37.661 34.4418C37.6834 34.4452 37.7061 34.4452 37.7284 34.4418C37.7284 34.4418 37.7284 34.4418 37.7284 34.3999C37.7293 34.3903 37.7282 34.3805 37.7251 34.3714C37.722 34.3623 37.7171 34.354 37.7106 34.3471C37.7042 34.3403 37.6964 34.335 37.6878 34.3317C37.6792 34.3284 37.6701 34.3272 37.661 34.3281C34.7264 33.6642 32.6013 27.9284 32.7868 21.0621C33.0117 13.8131 35.772 8.0174 38.9709 8.12506C40.0503 8.16693 41.0678 8.86074 41.9336 10.1586C41.9336 10.2005 41.973 10.2125 41.9898 10.2125C42.0067 10.2125 42.0011 10.1108 41.9842 10.0988ZM28.8684 15.8347C29.4089 15.385 29.7879 14.7516 29.9422 14.0403C29.9481 14.0144 29.9616 13.9911 29.9809 13.9739C30.0001 13.9567 30.0239 13.9464 30.049 13.9446L31.0778 13.843C31.1521 13.8302 31.228 13.8344 31.3006 13.8553C31.3732 13.8763 31.4408 13.9135 31.4988 13.9644C31.5568 14.0154 31.6039 14.0789 31.637 14.1508C31.6701 14.2227 31.6883 14.3013 31.6906 14.3813C31.7031 14.7244 31.5971 15.0606 31.3926 15.3263C31.2356 15.5274 31.0412 15.6918 30.8215 15.8091C30.6019 15.9265 30.3619 15.9942 30.1165 16.0081H28.9921C28.9706 16.0167 28.947 16.0176 28.9249 16.0108C28.9029 16.004 28.8835 15.9898 28.8696 15.9704C28.8557 15.9509 28.8481 15.9272 28.8479 15.9027C28.8476 15.8783 28.8549 15.8544 28.8684 15.8347ZM27.9801 23.8972C27.8059 23.9629 27.6316 23.7955 27.7103 23.64C28.279 22.6242 28.4789 21.4223 28.2725 20.2607C28.2664 20.2189 28.2744 20.1763 28.2949 20.1402C28.3155 20.1041 28.3474 20.0769 28.3849 20.0633L29.9253 19.3635C30.0436 19.3045 30.1718 19.2712 30.3023 19.2655C30.4329 19.2598 30.5632 19.2818 30.6856 19.3302C30.8081 19.3787 30.9203 19.4526 31.0156 19.5476C31.1109 19.6427 31.1875 19.757 31.2408 19.8839C31.4772 20.3933 31.5215 20.9796 31.3645 21.5227C31.2429 21.9259 31.0348 22.2936 30.7568 22.5967C30.4787 22.8998 30.1383 23.13 29.7623 23.2691L27.9801 23.8972ZM31.803 28.359C31.7765 28.6651 31.6808 28.9598 31.5242 29.218C31.3676 29.4763 31.1547 29.6905 30.9035 29.8423L29.7117 30.5302C29.5936 30.596 29.4418 30.4943 29.4756 30.3747C29.7286 29.5408 29.6887 28.6376 29.3631 27.8327C29.3564 27.8186 29.3523 27.8032 29.3512 27.7874C29.3501 27.7716 29.352 27.7557 29.3567 27.7407C29.3614 27.7257 29.3689 27.7118 29.3787 27.6999C29.3885 27.688 29.4004 27.6782 29.4137 27.6712L30.4313 26.9595C30.595 26.848 30.7929 26.8081 30.9836 26.8483C31.1742 26.8884 31.343 27.0054 31.4545 27.1748C31.703 27.5108 31.827 27.9322 31.803 28.359Z" fill="#F29A00"/>
<path d="M17.9999 12.9232C18.002 13.0437 17.9778 13.1632 17.9291 13.273C17.8803 13.3827 17.8082 13.48 17.718 13.5577C17.6373 13.6437 17.5397 13.7112 17.4316 13.7558C17.3235 13.8004 17.2073 13.8209 17.0908 13.8162H7.56903C7.38105 13.8179 7.19588 13.8629 7.02732 13.9479C6.85877 14.0329 6.71118 14.1557 6.59558 14.307C6.47997 14.4584 6.39934 14.6345 6.35969 14.8221C6.32004 15.0097 6.32239 15.2041 6.36658 15.3907C6.3967 15.5356 6.41213 15.6832 6.41261 15.8313V33.0566C6.41895 33.1806 6.40026 33.3045 6.3577 33.4207C6.31514 33.5369 6.24962 33.643 6.16521 33.7323C6.08973 33.8252 5.99312 33.8979 5.88381 33.944C5.7745 33.9901 5.65582 34.0081 5.5381 33.9966H0.877878C0.757836 34.0013 0.638198 33.9798 0.52693 33.9335C0.415663 33.8873 0.315319 33.8174 0.23258 33.7285C0.149841 33.6395 0.0866049 33.5336 0.0470824 33.4178C0.0075599 33.3019 -0.00734222 33.1788 0.00336823 33.0566V11.243C-0.0060274 10.8122 0.0730818 10.3841 0.235596 9.98647C0.398111 9.5888 0.640425 9.23032 0.946919 8.93412C1.22138 8.63677 1.55754 8.40592 1.93074 8.25851C2.27892 8.08744 2.66051 7.99907 3.04689 8.00001H17.0908C17.3314 8.02241 17.5559 8.13287 17.723 8.31102C17.89 8.48917 17.9884 8.723 17.9999 8.96937V12.9232Z" fill="#F29A00"/>
<path d="M72.0331 23.7954C72 23.1234 72 22.0269 72 20.5059C72 18.9849 72 17.8472 72.0331 17.1397C72.237 10.2129 76.5965 7 82.466 7C87.5971 7 92.899 9.72948 92.9982 16.0904C93.0054 16.1985 92.991 16.3071 92.9558 16.4087C92.9207 16.5104 92.8656 16.6029 92.7943 16.6799C92.644 16.827 92.4468 16.9071 92.2431 16.9039H87.4813C87.2385 16.9256 86.9973 16.8453 86.809 16.6799C86.5981 16.4875 86.456 16.223 86.4066 15.9312C85.8059 13.5378 84.665 12.6417 82.4495 12.6417C79.9363 12.6417 78.6283 14.2138 78.5254 17.3579C78.4924 18.0358 78.4924 19.0793 78.4924 20.4646C78.4924 21.85 78.4924 22.9347 78.5254 23.6421C78.6246 26.7862 79.9326 28.3583 82.4495 28.3583C84.5989 28.3583 85.8059 27.3856 86.4066 25.0688C86.4576 24.7735 86.5856 24.4996 86.7759 24.2788C86.9907 24.1493 87.2349 24.0861 87.4813 24.0961H92.2431C92.4473 24.0898 92.6455 24.1703 92.7943 24.3201C92.8656 24.3971 92.9207 24.4896 92.9558 24.5913C92.991 24.6929 93.0054 24.8015 92.9982 24.9096C92.899 31.3943 87.4868 34 82.466 34C76.4972 33.9352 72.237 30.8343 72.0331 23.7954Z" fill="white"/>
<path d="M115.124 8.00074C115.241 7.9957 115.357 8.01651 115.466 8.06184C115.575 8.10717 115.673 8.17603 115.755 8.26404C115.838 8.35205 115.902 8.4573 115.944 8.57308C115.986 8.68887 116.005 8.81266 115.999 8.93661V13.1215C116.005 13.2452 115.986 13.3688 115.944 13.4843C115.902 13.5998 115.838 13.7046 115.755 13.7922C115.673 13.8798 115.574 13.9481 115.466 13.9927C115.357 14.0374 115.241 14.0574 115.124 14.0515H110.353C110.167 14.0533 109.985 14.1001 109.819 14.1881C109.652 14.2762 109.507 14.4033 109.394 14.5599C109.281 14.7164 109.203 14.8983 109.166 15.0916C109.129 15.285 109.133 15.4849 109.18 15.676C109.197 15.781 109.206 15.8873 109.207 15.9939V33.1044C109.21 33.2252 109.187 33.3451 109.14 33.4551C109.093 33.5651 109.023 33.6625 108.936 33.7401C108.859 33.8269 108.765 33.8949 108.661 33.9396C108.557 33.9843 108.445 34.0046 108.333 33.9991H103.65C103.537 34.0047 103.424 33.9845 103.319 33.9398C103.214 33.8951 103.119 33.827 103.041 33.7401C102.955 33.6614 102.887 33.5637 102.841 33.4538C102.795 33.3439 102.773 33.2246 102.775 33.1044V15.1757C102.78 15.0306 102.758 14.8858 102.71 14.75C102.661 14.6142 102.587 14.4902 102.493 14.3853C102.398 14.2804 102.285 14.1968 102.159 14.1394C102.034 14.0821 101.899 14.0522 101.762 14.0515H96.8801C96.6477 14.0515 96.4246 13.9537 96.2597 13.7795C96.0948 13.6053 96.0015 13.3687 96 13.1215V11.2145C95.9983 10.3778 96.304 9.57344 96.8521 8.97306C97.4002 8.37268 98.1471 8.02376 98.9337 8.00074H115.124Z" fill="white"/>
<path d="M131.528 25.0434H128.652C128.513 25.0441 128.376 25.0739 128.248 25.1312C128.12 25.1884 128.004 25.2719 127.908 25.3766C127.812 25.4814 127.737 25.6052 127.687 25.7408C127.638 25.8764 127.615 26.021 127.62 26.1659V33.0656C127.624 33.3073 127.535 33.5406 127.375 33.7154C127.215 33.8901 126.995 33.9923 126.763 34H121.858C121.634 33.972 121.425 33.8635 121.269 33.693C121.113 33.5226 121.018 33.3007 121.001 33.0656V11.2441C120.984 10.5863 121.163 9.93909 121.513 9.39172C121.863 8.84434 122.368 8.42379 122.958 8.18807C123.289 8.07204 123.635 8.00864 123.984 8H131.528C136.918 8 141 10.4272 141 16.6157C141 22.9923 136.574 25.0434 131.528 25.0434ZM131.359 13.3363H128.088C127.73 13.3293 127.372 13.3668 127.023 13.448C126.622 13.6713 126.622 13.6713 126.831 13.8535C127.044 14.0434 127.216 14.2783 127.336 14.5428C127.456 14.8072 127.52 15.0951 127.525 15.3874V18.5963C127.515 18.7512 127.541 18.9063 127.601 19.0484C127.661 19.1906 127.753 19.3157 127.869 19.4132C127.96 19.5184 128.071 19.6026 128.195 19.6603C128.32 19.718 128.454 19.7479 128.59 19.7482H131.37C133.225 19.7482 134.353 18.6316 134.353 16.5805C134.353 14.5294 133.315 13.3363 131.359 13.3363Z" fill="white"/>
<path d="M58.5304 25.0434H55.6501C55.5115 25.0449 55.3745 25.0753 55.2474 25.1329C55.1202 25.1905 55.0054 25.2741 54.9098 25.3787C54.8141 25.4834 54.7396 25.607 54.6905 25.7422C54.6415 25.8774 54.6189 26.0215 54.6242 26.1659V33.0656C54.6258 33.3078 54.5365 33.5412 54.3754 33.7157C54.2143 33.8903 53.9941 33.9923 53.7618 34H48.8579C48.6333 33.972 48.4251 33.8635 48.2688 33.693C48.1125 33.5226 48.0179 33.3007 48.0012 33.0656V11.2441C47.9838 10.5863 48.1626 9.93909 48.5129 9.39172C48.8632 8.84434 49.3678 8.42379 49.9571 8.18807C50.288 8.07204 50.6339 8.00864 50.9829 8H58.5304C63.9191 8 68 10.4272 68 16.6157C68 22.9923 63.5752 25.0434 58.5304 25.0434ZM58.3613 13.3363H55.0921C54.734 13.3293 54.3763 13.3668 54.0267 13.448C53.6265 13.6713 53.6265 13.6713 53.8351 13.8535C54.0462 14.0445 54.2162 14.2799 54.3338 14.5443C54.4513 14.8087 54.5138 15.096 54.5171 15.3874V18.5963C54.5085 18.7511 54.5351 18.9058 54.5949 19.0478C54.6546 19.1898 54.7458 19.315 54.861 19.4132C54.9522 19.5184 55.0635 19.6026 55.1877 19.6603C55.312 19.718 55.4464 19.7479 55.5825 19.7482H58.3613C60.2158 19.7482 61.3431 18.6316 61.3431 16.5805C61.3431 14.5294 60.2947 13.3363 58.3613 13.3363Z" fill="#F29A00"/>
<path d="M191 8.98367V33.0105C190.999 33.2565 190.913 33.4939 190.758 33.6795C190.681 33.7714 190.587 33.8455 190.481 33.8971C190.375 33.9487 190.26 33.9765 190.143 33.9788H185.818C185.582 33.9757 185.357 33.876 185.192 33.7014C185.026 33.5267 184.933 33.2911 184.933 33.0457V19.97C184.657 20.0815 184.521 20.3045 184.279 20.7154C184.037 21.1262 183.766 21.6133 183.422 22.1708C183.078 22.7284 182.734 23.2859 182.322 23.996C181.911 24.7061 181.432 25.5219 180.778 26.637C179.751 28.3976 178.55 30.4751 177.141 32.8227C176.96 33.1955 176.679 33.5053 176.331 33.7138C175.983 33.9223 175.585 34.0206 175.184 33.9964H171.858C171.633 33.9685 171.425 33.8601 171.268 33.6899C171.112 33.5196 171.017 33.2981 171.001 33.0633V11.2549C170.985 10.4142 171.291 9.6015 171.85 8.99444C172.409 8.38737 173.176 8.03535 173.983 8.01533H176.284L176.526 8.05054C176.715 8.10305 176.882 8.22008 176.999 8.38288C177.117 8.54569 177.179 8.74484 177.175 8.94846V21.3492C177.173 21.3738 177.176 21.3984 177.185 21.4216C177.193 21.4447 177.205 21.4658 177.222 21.4835C177.238 21.5012 177.258 21.5152 177.28 21.5244C177.302 21.5336 177.326 21.5379 177.349 21.537L177.913 20.7564L179.858 17.5169C180.27 16.8068 180.783 15.9499 181.437 14.8701C182.362 13.3442 183.394 11.6657 184.527 9.76422L184.871 9.17734C185.052 8.80449 185.333 8.49474 185.681 8.2862C186.028 8.07766 186.427 7.97943 186.828 8.00359H190.12C190.234 7.99959 190.348 8.0205 190.454 8.06497C190.56 8.10945 190.656 8.1765 190.735 8.26181C190.906 8.46017 191 8.71727 191 8.98367Z" fill="white"/>
<path d="M179.554 6C179.183 6 179 5.81402 179 5.40006C179 5.21704 179.061 5.04011 179.172 4.90211L182.176 0.756541C182.357 0.533344 182.559 0.332171 182.78 0.156603C182.987 0.0586777 183.209 0.00567648 183.434 0.000619112H188.357C188.443 -0.00332917 188.529 0.0116384 188.61 0.0446258C188.691 0.0776132 188.765 0.127942 188.828 0.192599C188.938 0.370351 188.997 0.578768 189 0.792537C189.002 0.877369 188.989 0.961876 188.959 1.04047C188.929 1.11907 188.885 1.18997 188.828 1.24849L184.31 5.40006C184.13 5.57646 183.924 5.71847 183.7 5.82002C183.495 5.93897 183.262 5.99106 183.03 5.97L179.554 6Z" fill="#F29A00"/>
</svg>
