<svg width="16" height="16" viewBox="0 0 16 16" fill="none" xmlns="http://www.w3.org/2000/svg">
<path d="M14.0206 6.07308C13.4361 5.54353 12.8604 4.99601 12.2848 4.45749C11.7091 3.92794 11.1423 3.3894 10.5666 2.85088C9.80497 2.14182 9.04333 1.43274 8.28168 0.723678C8.06026 0.517241 7.83886 0.301829 7.59974 0.104368C7.43146 -0.0392408 7.18347 -0.0302653 7.03293 0.104368C6.82923 0.283878 6.82923 0.562119 7.05063 0.768555C7.36947 1.06475 7.6883 1.36094 8.00713 1.65713C8.67136 2.27643 9.32673 2.89576 9.99096 3.50609C10.6641 4.13437 11.3371 4.75369 12.0102 5.38197C12.4265 5.76792 12.8516 6.15386 13.2678 6.53982C13.5247 6.78214 13.7904 7.00653 14.0118 7.27581C15.048 8.53237 15.4022 9.95948 15.0214 11.5571C14.8 12.4906 14.3218 13.2804 13.6132 13.9087C12.4796 14.914 11.16 15.2999 9.67213 15.0396C8.83963 14.896 8.09569 14.537 7.45804 13.9715C6.66095 13.2535 5.89046 12.5265 5.10222 11.7995C4.61512 11.3417 4.12802 10.884 3.63206 10.4262C2.83498 9.69919 2.04677 8.97218 1.25854 8.23619C1.07257 8.06565 0.89543 7.89511 0.700589 7.73355C0.541174 7.59891 0.372902 7.58994 0.20463 7.67969C0.0452151 7.76945 -0.00792387 7.92204 0.00093354 8.10155C0.00978909 8.22721 0.0717836 8.31697 0.151491 8.39775C0.656308 8.87344 1.15226 9.34914 1.65709 9.81587C2.15305 10.2826 2.65785 10.7404 3.16268 11.2071C3.72947 11.7277 4.28743 12.2572 4.85424 12.7778C5.44762 13.3253 6.041 13.8638 6.62552 14.4203C7.706 15.4525 8.98134 15.9731 10.5578 16C10.6729 15.991 10.8855 15.9731 11.098 15.9551C11.8242 15.8833 12.5062 15.6589 13.1439 15.2999C14.242 14.6806 15.048 13.7741 15.5528 12.6073C15.8008 12.0238 15.9425 11.4135 15.9868 10.7763C16.0399 9.96846 15.9336 9.18759 15.6591 8.43365C15.3225 7.5002 14.7469 6.72829 14.0206 6.07308Z" fill="white" fill-opacity="0.8"/>
<path d="M13.1589 9.77652C13.2093 9.96146 13.2261 10.1632 13.2597 10.3482C13.2933 10.5415 13.3857 10.6424 13.5454 10.676C13.7974 10.7264 14.0159 10.5583 13.9991 10.2977C13.9823 10.0623 13.9571 9.82696 13.8899 9.60001C13.6966 8.89388 13.3269 8.29705 12.764 7.82631C11.9069 7.10339 10.9239 6.87642 9.83998 7.06136C9.02495 7.20425 8.34437 7.61616 7.81503 8.25502C7.27728 8.90229 7.00841 9.65884 7 10.5247C7.00841 10.6424 7.00841 10.7853 7.02522 10.9198C7.05883 11.1215 7.10083 11.3149 7.15125 11.5082C7.55456 12.8952 8.8149 13.9292 10.3609 13.9964C11.1339 14.03 11.8481 13.8283 12.4867 13.3744C13.0916 12.9541 13.5202 12.3992 13.7722 11.7099C13.8058 11.6175 13.8142 11.4914 13.7806 11.3989C13.7386 11.2644 13.6294 11.1804 13.4782 11.1635C13.3269 11.1467 13.2093 11.214 13.1421 11.3401C13.0748 11.4578 13.0244 11.5923 12.9572 11.7183C12.5875 12.4497 12.0078 12.9288 11.2263 13.1474C10.6802 13.2987 10.1424 13.2903 9.60471 13.0885C8.60484 12.7187 7.98308 12.0126 7.78981 10.9786C7.61337 10.0371 7.89064 9.21332 8.56282 8.52402C9.31902 7.75906 10.5542 7.47325 11.6128 7.96922C12.4111 8.34749 12.932 8.93591 13.1589 9.77652Z" fill="white" fill-opacity="0.8"/>
<path d="M2.56697 6.21094C3.15484 6.78459 3.73406 7.35826 4.32193 7.93191C4.64179 8.2465 4.96166 8.56108 5.29017 8.87567C5.36798 8.95895 5.45442 9.00521 5.55816 8.99596C5.79158 9.03297 6.01636 8.8109 5.99906 8.53332C5.98178 8.36679 5.90397 8.26501 5.80023 8.16323C5.22966 7.59881 4.65909 7.04366 4.0885 6.48852C2.97329 5.39671 1.86672 4.30491 0.760147 3.2131C0.690986 3.14833 0.613181 3.08356 0.526729 3.0373C0.301957 2.92627 0.0512503 3.07431 0.00802359 3.33339C-0.017911 3.50919 0.0166696 3.66649 0.146346 3.79601C0.371118 4.01807 0.587244 4.24014 0.812016 4.4622C1.39124 5.04511 1.9791 5.62801 2.56697 6.21094Z" fill="white" fill-opacity="0.8"/>
<path d="M0.250898 0.836432C0.799737 1.38142 1.34857 1.91814 1.89743 2.46314C2.56387 3.12373 3.23031 3.78431 3.89676 4.4449C4.05358 4.60179 4.21822 4.75869 4.38287 4.90732C4.58672 5.09723 4.90819 4.97336 4.97876 4.73391C5.03364 4.55225 4.97876 4.41187 4.85331 4.288C4.62593 4.05681 4.39856 3.83386 4.17118 3.6109C3.60666 3.04941 3.04213 2.49615 2.48545 1.94292C2.01503 1.48876 1.55244 1.02635 1.082 0.56394C0.925187 0.40705 0.776216 0.258416 0.611564 0.109784C0.493955 0.00243829 0.360667 -0.0388486 0.211696 0.0437251C0.0784063 0.118041 0.00784145 0.233645 0 0.440078C0.0156813 0.481366 0.0392039 0.572197 0.0862461 0.646513C0.12545 0.712572 0.188173 0.77863 0.250898 0.836432Z" fill="white" fill-opacity="0.8"/>
<path d="M4.28661 2.00072C4.42523 2.13815 4.57309 2.27558 4.7117 2.41301C5.72823 3.41426 6.74476 4.41552 7.77054 5.41677C7.94612 5.58365 8.12171 5.75053 8.30652 5.90758C8.44515 6.02537 8.61149 6.02537 8.76859 5.93702C8.92568 5.84868 8.99961 5.70145 8.99961 5.50512C9.00886 5.27934 8.85175 5.16155 8.72238 5.02412C8.08475 4.4057 7.4471 3.78729 6.81869 3.15903C6.28271 2.63878 5.75595 2.11852 5.22921 1.59826C5.06288 1.43138 4.89653 1.26451 4.72095 1.10745C4.54537 0.950388 4.29586 0.970019 4.13875 1.1369C3.9724 1.31359 3.95393 1.54918 4.09254 1.75532C4.13875 1.85348 4.21268 1.93201 4.28661 2.00072Z" fill="white" fill-opacity="0.8"/>
<path d="M12.1744 11.2525C11.8429 11.7778 11.3651 12.0909 10.7509 12.1616C10.3609 12.2121 9.99034 12.1616 9.63932 11.9899C9.42482 11.8788 9.20056 11.9495 9.0738 12.1313C8.9178 12.3636 9.01531 12.6465 9.30781 12.7677C9.44431 12.8283 9.58083 12.8788 9.72708 12.9091C9.96109 12.9697 10.2049 13 10.4486 13C11.0531 13 11.5699 12.8586 12.0379 12.5454C12.1939 12.4445 12.3402 12.3232 12.4864 12.1717C12.662 12 12.8082 11.798 12.935 11.5858C13.13 11.2424 12.8472 11 12.6034 11C12.3987 11 12.2817 11.0909 12.1744 11.2525Z" fill="white" fill-opacity="0.8"/>
<path d="M6.5 6C6.77616 6 7 5.77614 7 5.49999C7 5.22386 6.77616 5 6.5 5C6.22386 5 6 5.22386 6 5.49999C6 5.77614 6.22386 6 6.5 6Z" fill="white" fill-opacity="0.8"/>
</svg>
