<svg width="35" height="47" viewBox="0 0 35 47" fill="none" xmlns="http://www.w3.org/2000/svg">
<path d="M32.9346 11.8276C34.4923 15.9446 35.1832 20.3768 34.9586 24.8105C34.9054 28.5048 34.2481 32.1607 33.0163 35.6135C32.1723 37.871 30.9652 40.3513 28.5963 41.6012C26.2275 42.851 24.0584 40.9326 22.9239 39.0336C21.4649 36.365 20.5668 33.3897 20.2919 30.3137C20.0471 28.313 19.956 26.2942 20.0196 24.2776C20.3191 14.5889 23.9041 6.83787 28.0246 7.00258C29.5402 7.05102 30.9742 8.18461 32.1632 10.2677C32.4461 10.7727 32.7036 11.2934 32.9346 11.8276ZM32.1178 24.7039C32.3175 18.2319 30.4387 13.0774 27.843 12.9902C25.2473 12.903 23.06 17.9121 22.8604 24.3842C22.6607 30.8563 24.5485 36.0107 27.1351 36.0979C29.7218 36.1851 31.9181 31.1857 32.1178 24.7039Z" fill="black"/>
<path d="M26.9246 15C27.3492 15.4072 29.2926 17.7214 28.9624 24.5149C28.6322 31.0899 26.2453 33.4537 25.6038 34C25.3651 33.6145 25.1629 33.2054 25 32.7784C25.4812 32.4208 27.8303 30.4344 28.1133 24.2368C28.3964 18.0392 26.6699 16.1124 26.2265 15.7151C26.4318 15.4488 26.6661 15.2088 26.9246 15Z" fill="black"/>
<path d="M32.9739 6.64291C30.7569 1.48599 26.3137 0.225839 20.0987 0.0125827C15.3401 -0.152206 10.8876 1.31151 8.46656 3.82211C7.68458 4.59723 6.97056 5.44394 6.33307 6.35211C6.03623 6.57506 5.55388 7.46686 4.886 7.57349C4.40697 7.72682 3.99276 8.04723 3.71252 8.48121C3.43229 8.91519 3.30297 9.43648 3.34617 9.95808L3.69866 11.2279C3.0169 12.928 2.48594 14.6899 2.11246 16.4915C1.83417 16.7144 1.76924 18.1878 0.971501 18.6337C-0.0674178 19.2056 -0.280769 21.1831 0.368556 22.1234L1.29616 23.2963C1.29616 23.4708 1.29616 23.6356 1.29616 23.81C1.22394 26.0566 1.31698 28.3056 1.57444 30.5373C1.38892 30.7215 1.79707 31.875 1.32399 32.3984C0.711773 33.0673 1.1292 34.5892 1.87128 35.132L2.49278 35.5488C2.80421 36.768 3.20424 37.9605 3.68939 39.116H3.7636V39.2711C4.49944 41.2237 5.73885 42.9249 7.34416 44.1857C7.64402 44.3748 7.9537 44.5463 8.27176 44.6995C11.3431 46.1424 14.6632 46.9174 18.0302 46.9774C20.6611 47.0882 23.2931 46.7909 25.8406 46.0953C25.8775 46.1009 25.915 46.1009 25.9519 46.0953C25.9519 46.0953 25.9519 46.0953 25.9519 46.0275C25.9534 46.0118 25.9515 45.996 25.9464 45.9812C25.9413 45.9664 25.9332 45.953 25.9225 45.9419C25.9119 45.9308 25.899 45.9222 25.8849 45.9169C25.8707 45.9116 25.8556 45.9096 25.8406 45.9111C20.9985 44.8352 17.4922 35.5391 17.7983 24.411C18.1693 12.6626 22.7239 3.26959 28.0019 3.44407C29.783 3.51192 31.4619 4.63637 32.8904 6.73985C32.8904 6.8077 32.9554 6.82709 32.9832 6.82709C33.011 6.82709 33.0017 6.6623 32.9739 6.64291ZM11.3329 15.9389C12.2246 15.2102 12.85 14.1836 13.1046 13.0309C13.1144 12.9888 13.1367 12.9511 13.1684 12.9232C13.2001 12.8953 13.2395 12.8787 13.2808 12.8758L14.9784 12.711C15.1009 12.6903 15.2262 12.6971 15.346 12.731C15.4658 12.765 15.5773 12.8253 15.6731 12.9078C15.7688 12.9904 15.8465 13.0934 15.9011 13.2099C15.9556 13.3264 15.9858 13.4538 15.9894 13.5834C16.0101 14.1396 15.8352 14.6844 15.4978 15.115C15.2387 15.441 14.9179 15.7074 14.5555 15.8976C14.1932 16.0877 13.7971 16.1975 13.3921 16.2201H11.5369C11.5014 16.2339 11.4626 16.2355 11.4262 16.2244C11.3898 16.2134 11.3577 16.1904 11.3348 16.1589C11.3119 16.1273 11.2993 16.0889 11.299 16.0492C11.2986 16.0096 11.3105 15.9709 11.3329 15.9389ZM9.86725 29.0057C9.57969 29.1124 9.29213 28.8409 9.422 28.5889C10.3603 26.9427 10.6902 24.9948 10.3496 23.1121C10.3396 23.0445 10.3527 22.9754 10.3866 22.9169C10.4205 22.8584 10.4731 22.8142 10.5351 22.7922L13.0768 21.6581C13.272 21.5625 13.4834 21.5085 13.6988 21.4992C13.9142 21.49 14.1292 21.5256 14.3313 21.6041C14.5333 21.6826 14.7184 21.8024 14.8757 21.9565C15.033 22.1105 15.1593 22.2958 15.2474 22.5014C15.6374 23.3271 15.7104 24.2773 15.4514 25.1574C15.2507 25.811 14.9075 26.4069 14.4487 26.8981C13.9899 27.3893 13.4281 27.7624 12.8078 27.9879L9.86725 29.0057ZM16.175 36.2371C16.1312 36.7331 15.9733 37.2106 15.7149 37.6292C15.4565 38.0478 15.1052 38.3949 14.6908 38.641L12.7243 39.7558C12.5295 39.8624 12.279 39.6976 12.3347 39.5038C12.7522 38.1523 12.6863 36.6885 12.1492 35.384C12.138 35.3612 12.1314 35.3362 12.1296 35.3106C12.1277 35.285 12.1308 35.2593 12.1386 35.2349C12.1463 35.2106 12.1586 35.1881 12.1748 35.1688C12.1909 35.1494 12.2106 35.1336 12.2326 35.1223L13.9116 33.9688C14.1817 33.7881 14.5082 33.7235 14.8229 33.7886C15.1375 33.8536 15.4159 34.0432 15.5999 34.3178C16.0099 34.8624 16.2146 35.5453 16.175 36.2371Z" fill="black"/>
</svg>
