<svg width="31" height="42" viewBox="0 0 31 42" fill="none" xmlns="http://www.w3.org/2000/svg">
<path d="M29.0723 10.2759C30.5261 13.9224 31.171 17.8481 30.9613 21.775C30.9117 25.0471 30.2983 28.2852 29.1486 31.3434C28.3608 33.3429 27.2341 35.5397 25.0233 36.6467C22.8124 37.7537 20.7878 36.0546 19.729 34.3726C18.3672 32.009 17.529 29.3737 17.2724 26.6493C17.044 24.8772 16.959 23.0892 17.0183 21.3031C17.2978 12.7216 20.6438 5.8564 24.4896 6.00228C25.9042 6.04519 27.2426 7.04922 28.3523 8.89424C28.6164 9.34149 28.8567 9.80269 29.0723 10.2759ZM28.3099 21.6806C28.4963 15.9482 26.7428 11.3829 24.3202 11.3056C21.8975 11.2284 19.856 15.665 19.6697 21.3975C19.4833 27.1299 21.2453 31.6952 23.6594 31.7725C26.0736 31.8497 28.1236 27.4216 28.3099 21.6806Z" fill="#F29A00"/>
<path d="M23.4435 13C23.7619 13.3643 25.2195 15.4349 24.9718 21.5133C24.7242 27.3962 22.934 29.5112 22.4528 30C22.2738 29.6551 22.1222 29.289 22 28.9069C22.3609 28.587 24.1227 26.8097 24.335 21.2645C24.5473 15.7193 23.2524 13.9953 22.9198 13.6398C23.0738 13.4015 23.2496 13.1868 23.4435 13Z" fill="#F29A00"/>
<path d="M28.9771 5.93622C27.0288 1.32791 23.1242 0.201813 17.6625 0.0112441C13.4807 -0.136014 9.5679 1.17199 7.44031 3.41551C6.75311 4.10816 6.12565 4.8648 5.56542 5.67635C5.30457 5.87558 4.88068 6.67251 4.29376 6.7678C3.87279 6.90482 3.50879 7.19114 3.26252 7.57895C3.01625 7.96676 2.90261 8.4326 2.94057 8.89871L3.25034 10.0335C2.65122 11.5527 2.18461 13.1272 1.8564 14.7371C1.61185 14.9363 1.55479 16.253 0.853744 16.6514C-0.0592459 17.1625 -0.246736 18.9296 0.323882 19.7698L1.13905 20.818C1.13905 20.9739 1.13905 21.1211 1.13905 21.2771C1.07559 23.2846 1.15734 25.2944 1.3836 27.2887C1.22057 27.4532 1.57925 28.484 1.16351 28.9518C0.625497 29.5495 0.992323 30.9095 1.64446 31.3946L2.19062 31.767C2.4643 32.8565 2.81585 33.9222 3.24219 34.9547H3.3074V35.0933C3.95405 36.8382 5.04323 38.3584 6.45396 39.4851C6.71747 39.654 6.98961 39.8073 7.26912 39.9442C9.96819 41.2336 12.8859 41.9262 15.8447 41.9798C18.1567 42.0788 20.4697 41.8132 22.7084 41.1916C22.7409 41.1965 22.7738 41.1965 22.8063 41.1916C22.8063 41.1916 22.8063 41.1916 22.8063 41.1309C22.8075 41.1169 22.8059 41.1028 22.8014 41.0896C22.7969 41.0764 22.7897 41.0644 22.7804 41.0544C22.771 41.0445 22.7597 41.0369 22.7473 41.0322C22.7349 41.0274 22.7216 41.0256 22.7084 41.027C18.4532 40.0655 15.3719 31.7584 15.6409 21.8141C15.967 11.3155 19.9695 2.92176 24.6078 3.07768C26.1729 3.13831 27.6484 4.14314 28.9037 6.02284C28.9037 6.08348 28.9608 6.1008 28.9852 6.1008C29.0097 6.1008 29.0015 5.95354 28.9771 5.93622ZM9.95918 14.2433C10.7428 13.5921 11.2924 12.6747 11.5162 11.6446C11.5247 11.607 11.5444 11.5733 11.5722 11.5484C11.6001 11.5235 11.6347 11.5086 11.671 11.506L13.1628 11.3588C13.2705 11.3402 13.3806 11.3463 13.4859 11.3767C13.5912 11.407 13.6892 11.4609 13.7733 11.5347C13.8574 11.6085 13.9257 11.7005 13.9737 11.8046C14.0216 11.9087 14.0481 12.0225 14.0513 12.1384C14.0695 12.6354 13.9158 13.1222 13.6193 13.507C13.3916 13.7983 13.1097 14.0364 12.7912 14.2063C12.4728 14.3763 12.1247 14.4744 11.7689 14.4945H10.1385C10.1073 14.5069 10.0732 14.5083 10.0412 14.4984C10.0092 14.4886 9.98102 14.468 9.96088 14.4398C9.94074 14.4116 9.9297 14.3773 9.9294 14.3419C9.92909 14.3065 9.93954 14.2719 9.95918 14.2433ZM8.67122 25.92C8.41851 26.0153 8.16581 25.7728 8.27994 25.5475C9.10453 24.0765 9.39446 22.3358 9.0951 20.6534C9.0863 20.593 9.09781 20.5312 9.12763 20.4789C9.15745 20.4266 9.20366 20.3872 9.25814 20.3675L11.4917 19.354C11.6632 19.2686 11.8491 19.2204 12.0384 19.2121C12.2276 19.2038 12.4166 19.2357 12.5942 19.3058C12.7717 19.376 12.9344 19.483 13.0726 19.6207C13.2108 19.7584 13.3218 19.9239 13.3992 20.1077C13.7419 20.8455 13.8061 21.6946 13.5785 22.4811C13.4022 23.0652 13.1005 23.5977 12.6973 24.0366C12.2941 24.4756 11.8005 24.809 11.2553 25.0105L8.67122 25.92ZM14.2144 32.3821C14.1759 32.8253 14.0372 33.2521 13.8101 33.6261C13.583 34.0001 13.2742 34.3103 12.9101 34.5303L11.1819 35.5265C11.0107 35.6217 10.7907 35.4745 10.8396 35.3012C11.2065 34.0936 11.1485 32.7855 10.6765 31.6198C10.6668 31.5993 10.6609 31.577 10.6593 31.5542C10.6577 31.5313 10.6604 31.5083 10.6672 31.4865C10.6741 31.4648 10.6849 31.4447 10.6991 31.4274C10.7133 31.4101 10.7305 31.396 10.7499 31.3859L12.2254 30.3551C12.4627 30.1936 12.7497 30.1359 13.0262 30.1941C13.3026 30.2522 13.5473 30.4216 13.709 30.6669C14.0693 31.1536 14.2492 31.7639 14.2144 32.3821Z" fill="#F29A00"/>
</svg>
